<svg width="12" height="8" viewBox="0 0 12 8" fill="none" xmlns="http://www.w3.org/2000/svg">
<path d="M1.71993 4.00002C1.71993 4.1434 1.77467 4.28676 1.88393 4.39607L5.32378 7.83589C5.5426 8.0547 5.89738 8.0547 6.1161 7.83589C6.33483 7.61716 6.33483 7.26245 6.1161 7.04362L3.07233 4.00002L6.116 0.956408C6.33473 0.73759 6.33473 0.382922 6.116 0.16421C5.89727 -0.0547133 5.5425 -0.0547133 5.32368 0.16421L1.88382 3.60398C1.77455 3.71334 1.71993 3.8567 1.71993 4.00002Z" fill="#071A3B"/>
<path d="M5.71993 3.99998C5.71993 3.8566 5.77467 3.71324 5.88393 3.60393L9.32378 0.164113C9.5426 -0.0547043 9.89738 -0.0547043 10.1161 0.164113C10.3348 0.382842 10.3348 0.737546 10.1161 0.956381L7.07233 3.99998L10.116 7.04359C10.3347 7.26241 10.3347 7.61708 10.116 7.83579C9.89727 8.05471 9.5425 8.05471 9.32368 7.83579L5.88382 4.39602C5.77455 4.28666 5.71993 4.1433 5.71993 3.99998Z" fill="#071A3B"/>
</svg>
 