<svg width="12" height="8" viewBox="0 0 12 8" fill="none" xmlns="http://www.w3.org/2000/svg">
<path d="M6.28007 4.00002C6.28007 4.1434 6.22533 4.28676 6.11607 4.39607L2.67622 7.83589C2.4574 8.0547 2.10262 8.0547 1.8839 7.83589C1.66517 7.61716 1.66517 7.26245 1.8839 7.04362L4.92767 4.00002L1.884 0.956408C1.66527 0.73759 1.66527 0.382922 1.884 0.16421C2.10273 -0.0547133 2.4575 -0.0547133 2.67632 0.16421L6.11618 3.60398C6.22545 3.71334 6.28007 3.8567 6.28007 4.00002Z" fill="#071A3B"/>
<path d="M10.2801 4.00002C10.2801 4.1434 10.2253 4.28676 10.1161 4.39607L6.67622 7.83589C6.4574 8.0547 6.10262 8.0547 5.8839 7.83589C5.66517 7.61716 5.66517 7.26245 5.8839 7.04362L8.92767 4.00002L5.884 0.956408C5.66527 0.73759 5.66527 0.382922 5.884 0.16421C6.10273 -0.0547133 6.4575 -0.0547133 6.67632 0.16421L10.1162 3.60398C10.2255 3.71334 10.2801 3.8567 10.2801 4.00002Z" fill="#071A3B"/>
</svg>
