<svg width="16" height="17" viewBox="0 0 16 17" fill="none" xmlns="http://www.w3.org/2000/svg">
<path d="M16 8.5009V15.7728C15.9994 15.9655 15.9226 16.1501 15.7864 16.2864C15.6501 16.4227 15.4654 16.4994 15.2727 16.5H10.1818C9.98911 16.4994 9.80444 16.4227 9.66817 16.2864C9.5319 16.1501 9.4551 15.9655 9.45455 15.7728V12.1369C9.45455 11.7511 9.3013 11.3812 9.02852 11.1085C8.75574 10.8357 8.38577 10.6825 8 10.6825C7.61423 10.6825 7.24426 10.8357 6.97148 11.1085C6.6987 11.3812 6.54545 11.7511 6.54545 12.1369V15.7728C6.5449 15.9655 6.4681 16.1501 6.33183 16.2864C6.19556 16.4227 6.0109 16.4994 5.81818 16.5H0.727273C0.534559 16.4994 0.349898 16.4227 0.213628 16.2864C0.0773583 16.1501 0.000556452 15.9655 0 15.7728V8.5009C0.00141348 8.30811 0.0769294 8.12325 0.210909 7.9846L7.48364 0.712691C7.62095 0.576451 7.80656 0.5 8 0.5C8.19345 0.5 8.37905 0.576451 8.51636 0.712691L15.7891 7.9846C15.9231 8.12325 15.9986 8.30811 16 8.5009Z" fill="#E4E6EC"/>
</svg>
