<svg width="16" height="16" viewBox="0 0 16 16" fill="none" xmlns="http://www.w3.org/2000/svg">
<path d="M6.90912 6.54545C8.7166 6.54545 10.1818 5.0802 10.1818 3.27273C10.1818 1.46525 8.7166 0 6.90912 0C5.10164 0 3.63639 1.46525 3.63639 3.27273C3.63639 5.0802 5.10164 6.54545 6.90912 6.54545Z" fill="#9F2180"/>
<path d="M11.3008 11.6364C9.07617 11.6364 7.27279 13.4398 7.27279 15.6643C7.27279 15.8497 7.42307 16 7.60845 16H15.6644C15.8498 16 16.0001 15.8497 16.0001 15.6643C16.0001 13.4398 14.1967 11.6364 11.9721 11.6364H11.3008Z" fill="#9F2180"/>
<path d="M13.8182 8.72727C13.8182 9.93225 12.8414 10.9091 11.6364 10.9091C10.4314 10.9091 9.45459 9.93225 9.45459 8.72727C9.45459 7.52228 10.4314 6.54545 11.6364 6.54545C12.8414 6.54545 13.8182 7.52228 13.8182 8.72727Z" fill="#9F2180"/>
<path d="M0.503496 13.8182H6.98305C7.54629 12.5026 8.69323 11.4964 10.0982 11.1251C9.31003 10.6185 8.78792 9.73385 8.78792 8.72727C8.78792 8.25578 8.90248 7.81104 9.10527 7.41937C8.67763 7.32338 8.23284 7.27273 7.77623 7.27273H6.04196C2.70508 7.27273 0 9.9778 0 13.3147C0 13.5928 0.225423 13.8182 0.503496 13.8182Z" fill="#9F2180"/>
</svg>
