<svg width="16" height="16" viewBox="0 0 16 16" fill="none" xmlns="http://www.w3.org/2000/svg">
<path fill-rule="evenodd" clip-rule="evenodd" d="M9.12819 6.21252L15.9063 15.25C16.0128 15.3921 16.0299 15.5822 15.9506 15.7408C15.8711 15.8997 15.7089 16 15.5313 16H0.46877C0.29128 16 0.128927 15.8997 0.0494589 15.7408C-0.0298868 15.582 -0.012797 15.3921 0.0937704 15.25L6.87197 6.21252C7.05153 5.97302 7.27993 5.79749 7.53127 5.69983V0.46875C7.53127 0.209839 7.74111 0 8.00002 0H11.7656C11.9552 0 12.1262 0.114258 12.1988 0.289307C12.2713 0.464478 12.2312 0.666138 12.0971 0.800171L11.1734 1.724L12.083 2.63367C12.1764 2.71924 12.235 2.84241 12.235 2.97925C12.235 3.23804 12.0252 3.448 11.7663 3.448H8.46877V5.69983C8.72011 5.79749 8.94851 5.97302 9.12819 6.21252ZM4.82058 10.5101L1.40627 15.0625H14.5938L11.1796 10.5103L9.95388 11.8647C9.86489 11.963 9.73867 12.019 9.60622 12.019C9.47377 12.019 9.34755 11.963 9.25869 11.8647L8.00002 10.4738L6.74135 11.8647C6.65249 11.963 6.52627 12.019 6.39382 12.019C6.26137 12.019 6.13503 11.963 6.04629 11.8647L4.82058 10.5101Z" fill="#9F2180"/>
</svg>
