<svg width="16" height="16" viewBox="0 0 16 16" fill="none" xmlns="http://www.w3.org/2000/svg">
<g clip-path="url(#clip0_8_2579)">
<path d="M8.00113 0C5.7154 0 3.84692 1.86847 3.84692 4.1542C3.84692 6.43993 5.7154 8.3084 8.00113 8.3084C10.2869 8.3084 12.1553 6.43993 12.1553 4.1542C12.1553 1.86847 10.2869 0 8.00113 0Z" fill="#9F2180"/>
<path d="M15.1304 11.6281C15.0215 11.356 14.8764 11.102 14.7132 10.8662C13.8787 9.63262 12.5907 8.81631 11.1395 8.61676C10.9581 8.59863 10.7585 8.63488 10.6134 8.74374C9.85149 9.3061 8.94448 9.59634 8.00114 9.59634C7.05781 9.59634 6.1508 9.3061 5.38889 8.74374C5.24375 8.63488 5.0442 8.58047 4.86281 8.61676C3.41156 8.81631 2.10545 9.63262 1.28913 10.8662C1.12587 11.102 0.980727 11.3742 0.871907 11.6281C0.817497 11.737 0.835622 11.8639 0.890032 11.9728C1.03517 12.2268 1.21656 12.4807 1.37982 12.6984C1.63378 13.0431 1.9059 13.3515 2.2143 13.6417C2.46826 13.8957 2.7585 14.1315 3.04878 14.3673C4.48187 15.4377 6.20524 16 7.98302 16C9.7608 16 11.4842 15.4376 12.9173 14.3673C13.2075 14.1497 13.4977 13.8957 13.7517 13.6417C14.042 13.3515 14.3322 13.0431 14.5862 12.6984C14.7676 12.4626 14.9309 12.2268 15.076 11.9728C15.1667 11.8639 15.1848 11.7369 15.1304 11.6281Z" fill="#9F2180"/>
</g>
<defs>
<clipPath id="clip0_8_2579">
<rect width="16" height="16" fill="white"/>
</clipPath>
</defs>
</svg>
