<svg width="16" height="17" viewBox="0 0 16 17" fill="none" xmlns="http://www.w3.org/2000/svg">
<g clip-path="url(#clip0_1064_279)">
<path fill-rule="evenodd" clip-rule="evenodd" d="M11.0279 9.37641L10.7744 9.12289C10.7744 9.12289 8.11963 6.47271 7.23923 5.58332C6.7012 5.04529 6.40326 4.32942 6.40326 3.56458C6.40326 1.98148 7.69285 0.692017 9.27582 0.692017C9.99181 0.692017 10.6143 1.04324 11.0279 1.43015C11.4414 1.04324 12.064 0.692017 12.7798 0.692017C14.3629 0.692017 15.6524 1.98148 15.6524 3.56458C15.6524 4.32942 15.3545 5.04971 14.8164 5.58775C13.9316 6.47271 11.2813 9.12745 11.2813 9.12745L11.0279 9.37641ZM14.5901 2.38521C14.5829 2.37424 14.5757 2.36334 14.5683 2.3525L14.5901 2.38521Z" fill="#E4E6EC"/>
<path fill-rule="evenodd" clip-rule="evenodd" d="M1.06721 15.2772H2.13443C2.72144 15.2772 3.20164 14.797 3.20164 14.21V14.1859C5.22628 14.9277 8.64439 16.1755 8.64439 16.1755C8.95119 16.2866 9.27583 16.3444 9.59605 16.3444C10.063 16.3444 10.5254 16.2287 10.9389 15.9931L15.1745 13.6405C15.1989 13.627 15.2246 13.6129 15.2478 13.5964C15.9282 13.1561 16.195 12.2801 15.8481 11.6398C15.5413 11.0795 14.8476 10.8571 14.2028 11.1151L12.8025 11.6676C12.8052 11.6335 12.8066 11.599 12.8066 11.5642C12.8066 10.8617 12.2374 10.2924 11.5348 10.2924H8.59557C7.56835 9.60322 6.22548 9.22516 4.80248 9.22516C4.25363 9.22516 3.71796 9.28075 3.20164 9.39194V9.22972C3.20164 8.6427 2.72144 8.16251 2.13443 8.16251H1.06721C0.480194 8.16251 0 8.6427 0 9.22972V14.21C0 14.797 0.480194 15.2772 1.06721 15.2772ZM9.93844 12.4314C10.5539 12.4314 11.1604 12.3167 11.7361 12.0919L11.7349 12.0889L11.799 12.0636C11.9815 11.9679 12.0996 11.7794 12.0996 11.5687C12.0996 11.2619 11.8505 11.0084 11.5393 11.0084H8.36433L8.23536 10.9105C7.33268 10.2879 6.10979 9.94115 4.80248 9.94115C4.25128 9.94115 3.71302 10.0029 3.20164 10.1236V13.4288C5.18122 14.1509 8.88904 15.5085 8.88904 15.5085C9.44923 15.713 10.0718 15.6641 10.5966 15.3751L14.8076 13.0361C14.8164 13.0317 14.8251 13.0262 14.8339 13.0207C14.8429 13.0151 14.8519 13.0095 14.861 13.005C15.23 12.7649 15.399 12.298 15.2256 11.9822C15.0922 11.7376 14.7809 11.6531 14.4652 11.7776L11.9973 12.7514L11.9964 12.7492C11.3398 13.0101 10.6479 13.1428 9.93844 13.1428H7.8263V12.4314H9.93844ZM0.711432 9.22972C0.711432 9.03405 0.87154 8.87394 1.06721 8.87394H2.13443C2.3301 8.87394 2.49021 9.03405 2.49021 9.22972V14.21C2.49021 14.4057 2.3301 14.5658 2.13443 14.5658H1.06721C0.87154 14.5658 0.711432 14.4057 0.711432 14.21V9.22972Z" fill="#E4E6EC"/>
</g>
<defs>
<clipPath id="clip0_1064_279">
<rect width="16" height="16" fill="white" transform="translate(0 0.5)"/>
</clipPath>
</defs>
</svg>
   