<svg width="24" height="24" viewBox="0 0 24 24" fill="none" xmlns="http://www.w3.org/2000/svg">
<g clip-path="url(#clip0_2_766)">
<path d="M9.99994 24C11.811 24 13.326 22.7089 13.674 21H6.32593C6.67401 22.7089 8.18903 24 9.99994 24Z" fill="#E4E6EC"/>
<path d="M17.5759 14.4959C17.5499 14.4959 17.5259 14.4999 17.4999 14.4999C13.0889 14.4999 9.50006 10.9111 9.50006 6.50006C9.50006 4.76697 10.06 3.16608 11.0001 1.85394V0.999939C11.0001 0.44696 10.552 0 9.99994 0C9.44806 0 9 0.44696 9 0.999939V2.08008C5.61292 2.56805 3 5.48108 3 9V11.788C3 13.767 2.133 15.635 0.611939 16.921C0.223022 17.254 0 17.738 0 18.2499C0 19.2151 0.784973 20.0001 1.74994 20.0001H18.2499C19.2151 20.0001 20.0001 19.2151 20.0001 18.2499C20.0001 17.738 19.777 17.254 19.3781 16.9131C18.59 16.246 17.9821 15.416 17.5759 14.4959Z" fill="#E4E6EC"/>
<path d="M17.4999 0C13.916 0 11.0001 2.91595 11.0001 6.50006C11.0001 10.084 13.916 12.9999 17.4999 12.9999C21.084 12.9999 24 10.084 24 6.50006C24 2.91595 21.084 0 17.4999 0Z" fill="#51DC9A"/>
</g>
<defs>
<clipPath id="clip0_2_766">
<rect width="24" height="24" fill="white"/>
</clipPath>
</defs>
</svg>
