<svg width="40" height="40" viewBox="0 0 40 40" fill="none" xmlns="http://www.w3.org/2000/svg">
<rect x="0.5" y="0.5" width="39" height="39" rx="19.5" fill="#F2F2F3"/>
<rect x="0.5" y="0.5" width="39" height="39" rx="19.5" stroke="#E4E6EC"/>
<path d="M31.2015 13.4977C30.7224 12.9958 30.0608 12.6992 29.308 12.6992H25.5209V12.6535C25.5209 12.0832 25.2928 11.5357 24.9049 11.1707C24.5171 10.7828 23.9924 10.5547 23.4221 10.5547H16.5779C15.9848 10.5547 15.4601 10.7828 15.0722 11.1707C14.6844 11.5585 14.4563 12.0832 14.4563 12.6535V12.6992H10.692C9.93916 12.6992 9.27757 12.9958 8.79848 13.4977C8.31939 13.9767 8 14.6612 8 15.3912V26.7524C8 27.5053 8.29658 28.1669 8.79848 28.6459C9.27757 29.125 9.96198 29.4444 10.692 29.4444H29.308C30.0608 29.4444 30.7224 29.1478 31.2015 28.6459C31.6806 28.1669 32 27.4824 32 26.7524V15.3912C32 14.6383 31.7034 13.9767 31.2015 13.4977ZM30.8137 26.7524H30.7909C30.7909 27.1631 30.6312 27.5281 30.3574 27.8018C30.0837 28.0756 29.7186 28.2353 29.308 28.2353H10.692C10.2814 28.2353 9.91635 28.0756 9.64259 27.8018C9.36882 27.5281 9.20913 27.1631 9.20913 26.7524V15.3912C9.20913 14.9805 9.36882 14.6155 9.64259 14.3418C9.91635 14.068 10.2814 13.9083 10.692 13.9083H15.0951C15.4373 13.9083 15.711 13.6345 15.711 13.2923V12.6307C15.711 12.3798 15.8023 12.1516 15.962 11.9919C16.1217 11.8323 16.3498 11.741 16.6008 11.741H23.4221C23.673 11.741 23.9011 11.8323 24.0608 11.9919C24.2205 12.1516 24.3118 12.3798 24.3118 12.6307V13.2923C24.3118 13.6345 24.5856 13.9083 24.9278 13.9083H29.3308C29.7414 13.9083 30.1065 14.068 30.3802 14.3418C30.654 14.6155 30.8137 14.9805 30.8137 15.3912V26.7524Z" fill="#103A84"/>
<path d="M20 15.459C18.4487 15.459 17.0342 16.0978 16.0304 17.1016C15.0038 18.1282 14.3878 19.5198 14.3878 21.0712C14.3878 22.6225 15.0266 24.0369 16.0304 25.0407C17.057 26.0673 18.4487 26.6833 20 26.6833C21.5513 26.6833 22.9658 26.0445 23.9696 25.0407C24.9962 24.0141 25.6122 22.6225 25.6122 21.0712C25.6122 19.5198 24.9734 18.1054 23.9696 17.1016C22.9658 16.0978 21.5513 15.459 20 15.459ZM23.1027 24.1966C22.3042 24.9723 21.2091 25.4742 20 25.4742C18.7909 25.4742 17.6958 24.9723 16.8974 24.1966C16.0989 23.3981 15.6198 22.3031 15.6198 21.094C15.6198 19.8848 16.1217 18.7898 16.8974 17.9913C17.6958 17.1928 18.7909 16.7137 20 16.7137C21.2091 16.7137 22.3042 17.2156 23.1027 17.9913C23.9012 18.7898 24.3802 19.8848 24.3802 21.094C24.4031 22.3031 23.9012 23.3981 23.1027 24.1966Z" fill="#103A84"/>
<path d="M28.1217 17.6732C28.7391 17.6732 29.2396 17.1728 29.2396 16.5554C29.2396 15.938 28.7391 15.4375 28.1217 15.4375C27.5043 15.4375 27.0038 15.938 27.0038 16.5554C27.0038 17.1728 27.5043 17.6732 28.1217 17.6732Z" fill="#103A84"/>
</svg>
