<svg width="16" height="17" viewBox="0 0 16 17" fill="none" xmlns="http://www.w3.org/2000/svg">
<path fill-rule="evenodd" clip-rule="evenodd" d="M9.12819 6.71252L15.9063 15.75C16.0128 15.8921 16.0299 16.0822 15.9506 16.2408C15.8711 16.3997 15.7089 16.5 15.5313 16.5H0.46877C0.29128 16.5 0.128927 16.3997 0.0494589 16.2408C-0.0298868 16.082 -0.012797 15.8921 0.0937704 15.75L6.87197 6.71252C7.05153 6.47302 7.27993 6.29749 7.53127 6.19983V0.96875C7.53127 0.709839 7.74111 0.5 8.00002 0.5H11.7656C11.9552 0.5 12.1262 0.614258 12.1988 0.789307C12.2713 0.964478 12.2312 1.16614 12.0971 1.30017L11.1734 2.224L12.083 3.13367C12.1764 3.21924 12.235 3.34241 12.235 3.47925C12.235 3.73804 12.0252 3.948 11.7663 3.948H8.46877V6.19983C8.72011 6.29749 8.94851 6.47302 9.12819 6.71252ZM4.82058 11.0101L1.40627 15.5625H14.5938L11.1796 11.0103L9.95388 12.3647C9.86489 12.463 9.73867 12.519 9.60622 12.519C9.47377 12.519 9.34755 12.463 9.25869 12.3647L8.00002 10.9738L6.74135 12.3647C6.65249 12.463 6.52627 12.519 6.39382 12.519C6.26137 12.519 6.13503 12.463 6.04629 12.3647L4.82058 11.0101Z" fill="#E4E6EC"/>
</svg>
