<svg width="20" height="21" viewBox="0 0 20 21" fill="none" xmlns="http://www.w3.org/2000/svg">
<path fill-rule="evenodd" clip-rule="evenodd" d="M5.32106 11.6998L4.41421 12.6066L3.5 16.3492L7.24264 15.435L19.2635 3.41421C20.0445 2.63316 20.0445 1.36683 19.2635 0.585786C18.4824 -0.195262 17.2161 -0.195262 16.435 0.585786L6.02817 10.9926L6 10.9645L5.29289 11.6716L5.32106 11.6998ZM8.14949 13.114L18.5564 2.70711C18.9469 2.31658 18.9469 1.68342 18.5564 1.29289C18.1658 0.902369 17.5327 0.902369 17.1421 1.29289L6.73527 11.6998L8.14949 13.114ZM7.44238 13.8211L6.02817 12.4069L5.31924 13.1158L4.86213 14.9871L6.73345 14.53L7.44238 13.8211Z" fill="#103A84"/>
<path d="M0 3.67157C0 1.73858 1.567 0.171573 3.5 0.171573H13.5C13.7761 0.171573 14 0.39543 14 0.671573C14 0.947715 13.7761 1.17157 13.5 1.17157H3.5C2.11929 1.17157 1 2.29086 1 3.67157V16.6716C1 18.0523 2.11929 19.1716 3.5 19.1716H16.5C17.8807 19.1716 19 18.0523 19 16.6716V6.67157C19 6.39543 19.2239 6.17157 19.5 6.17157C19.7761 6.17157 20 6.39543 20 6.67157V16.6716C20 18.6046 18.433 20.1716 16.5 20.1716H3.5C1.567 20.1716 0 18.6046 0 16.6716V3.67157Z" fill="#103A84"/>
</svg>
