<svg width="16" height="16" viewBox="0 0 16 16" fill="none" xmlns="http://www.w3.org/2000/svg">
<g clip-path="url(#clip0_8_2879)">
<path fill-rule="evenodd" clip-rule="evenodd" d="M11.0279 8.87635L10.7744 8.62283C10.7744 8.62283 8.11963 5.97265 7.23923 5.08326C6.7012 4.54522 6.40326 3.82936 6.40326 3.06452C6.40326 1.48142 7.69285 0.191956 9.27582 0.191956C9.99181 0.191956 10.6143 0.543177 11.0279 0.930094C11.4414 0.543177 12.064 0.191956 12.7798 0.191956C14.3629 0.191956 15.6524 1.48142 15.6524 3.06452C15.6524 3.82936 15.3545 4.54965 14.8164 5.08769C13.9316 5.97265 11.2813 8.62739 11.2813 8.62739L11.0279 8.87635ZM14.5901 1.88515C14.5829 1.87418 14.5757 1.86327 14.5683 1.85244L14.5901 1.88515Z" fill="#9F2180"/>
<path fill-rule="evenodd" clip-rule="evenodd" d="M1.06721 14.7772H2.13443C2.72144 14.7772 3.20164 14.297 3.20164 13.7099V13.6859C5.22628 14.4276 8.64439 15.6754 8.64439 15.6754C8.95119 15.7865 9.27583 15.8444 9.59605 15.8444C10.063 15.8444 10.5254 15.7287 10.9389 15.493L15.1745 13.1404C15.1989 13.127 15.2246 13.1128 15.2478 13.0963C15.9282 12.656 16.195 11.78 15.8481 11.1397C15.5413 10.5794 14.8476 10.3571 14.2028 10.615L12.8025 11.1676C12.8052 11.1334 12.8066 11.0989 12.8066 11.0642C12.8066 10.3616 12.2374 9.79231 11.5348 9.79231H8.59557C7.56835 9.10316 6.22548 8.7251 4.80248 8.7251C4.25363 8.7251 3.71796 8.78069 3.20164 8.89188V8.72966C3.20164 8.14264 2.72144 7.66245 2.13443 7.66245H1.06721C0.480194 7.66245 0 8.14264 0 8.72966V13.7099C0 14.297 0.480194 14.7772 1.06721 14.7772ZM9.93844 11.9313C10.5539 11.9313 11.1604 11.8166 11.7361 11.5918L11.7349 11.5888L11.799 11.5635C11.9815 11.4678 12.0996 11.2793 12.0996 11.0686C12.0996 10.7618 11.8505 10.5083 11.5393 10.5083H8.36433L8.23536 10.4105C7.33268 9.78788 6.10979 9.44109 4.80248 9.44109C4.25128 9.44109 3.71302 9.50279 3.20164 9.62351V12.9288C5.18122 13.6508 8.88904 15.0084 8.88904 15.0084C9.44923 15.2129 10.0718 15.1641 10.5966 14.875L14.8076 12.536C14.8164 12.5316 14.8251 12.5261 14.8339 12.5207C14.8429 12.515 14.8519 12.5094 14.861 12.5049C15.23 12.2648 15.399 11.7979 15.2256 11.4821C15.0922 11.2376 14.7809 11.153 14.4652 11.2776L11.9973 12.2514L11.9964 12.2491C11.3398 12.51 10.6479 12.6427 9.93844 12.6427H7.8263V11.9313H9.93844ZM0.711432 8.72966C0.711432 8.53398 0.87154 8.37388 1.06721 8.37388H2.13443C2.3301 8.37388 2.49021 8.53398 2.49021 8.72966V13.7099C2.49021 13.9056 2.3301 14.0657 2.13443 14.0657H1.06721C0.87154 14.0657 0.711432 13.9056 0.711432 13.7099V8.72966Z" fill="#9F2180"/>
</g>
<defs>
<clipPath id="clip0_8_2879">
<rect width="16" height="16" fill="white"/>
</clipPath>
</defs>
</svg>
