<svg width="16" height="17" viewBox="0 0 16 17" fill="none" xmlns="http://www.w3.org/2000/svg">
<g clip-path="url(#clip0_1064_260)">
<path d="M8.00113 0.5C5.7154 0.5 3.84692 2.36847 3.84692 4.6542C3.84692 6.93993 5.7154 8.8084 8.00113 8.8084C10.2869 8.8084 12.1553 6.93993 12.1553 4.6542C12.1553 2.36847 10.2869 0.5 8.00113 0.5Z" fill="#E4E6EC"/>
<path d="M15.1304 12.1281C15.0215 11.856 14.8764 11.6021 14.7132 11.3662C13.8787 10.1327 12.5907 9.31634 11.1395 9.11679C10.9581 9.09866 10.7585 9.13491 10.6134 9.24377C9.85149 9.80613 8.94448 10.0964 8.00114 10.0964C7.05781 10.0964 6.1508 9.80613 5.38889 9.24377C5.24375 9.13491 5.0442 9.0805 4.86281 9.11679C3.41156 9.31634 2.10545 10.1327 1.28913 11.3662C1.12587 11.6021 0.980727 11.8742 0.871907 12.1281C0.817497 12.237 0.835622 12.364 0.890032 12.4728C1.03517 12.7268 1.21656 12.9808 1.37982 13.1985C1.63378 13.5431 1.9059 13.8515 2.2143 14.1418C2.46826 14.3957 2.7585 14.6315 3.04878 14.8674C4.48187 15.9377 6.20524 16.5 7.98302 16.5C9.7608 16.5 11.4842 15.9377 12.9173 14.8674C13.2075 14.6497 13.4977 14.3957 13.7517 14.1418C14.042 13.8515 14.3322 13.5431 14.5862 13.1985C14.7676 12.9626 14.9309 12.7268 15.076 12.4728C15.1667 12.364 15.1848 12.237 15.1304 12.1281Z" fill="#E4E6EC"/>
</g>
<defs>
<clipPath id="clip0_1064_260">
<rect width="16" height="16" fill="white" transform="translate(0 0.5)"/>
</clipPath>
</defs>
</svg>
