<svg width="16" height="16" viewBox="0 0 16 16" fill="none" xmlns="http://www.w3.org/2000/svg">
<path d="M6.76349 13.527C5.4258 13.527 4.11815 13.1303 3.0059 12.3871C1.89365 11.6439 1.02675 10.5876 0.514843 9.35176C0.00293048 8.1159 -0.131009 6.75599 0.129962 5.444C0.390932 4.13201 1.03509 2.92687 1.98098 1.98098C2.92687 1.03509 4.13201 0.390932 5.444 0.129962C6.75599 -0.131009 8.1159 0.00293048 9.35176 0.514843C10.5876 1.02675 11.6439 1.89365 12.3871 3.0059C13.1303 4.11815 13.527 5.4258 13.527 6.76349C13.527 8.55728 12.8144 10.2776 11.546 11.546C10.2776 12.8144 8.55728 13.527 6.76349 13.527ZM6.76349 1.503C5.72306 1.503 4.706 1.81152 3.84092 2.38955C2.97583 2.96758 2.30158 3.78916 1.90343 4.75039C1.50528 5.71162 1.4011 6.76932 1.60408 7.78976C1.80706 8.81019 2.30807 9.74752 3.04376 10.4832C3.77945 11.2189 4.71678 11.7199 5.73722 11.9229C6.75765 12.1259 7.81536 12.0217 8.77659 11.6235C9.73782 11.2254 10.5594 10.5511 11.1374 9.68606C11.7155 8.82098 12.024 7.80392 12.024 6.76349C12.024 5.36832 11.4697 4.03029 10.4832 3.04376C9.49668 2.05723 8.15866 1.503 6.76349 1.503Z" fill="#A2A7BF"/>
<path d="M11.806 10.7393L10.7389 11.8064L14.7218 15.7818C14.8626 15.9218 15.0531 16.0003 15.2516 16.0003C15.4502 16.0003 15.6406 15.9218 15.7814 15.7818C15.9214 15.641 16 15.4505 16 15.252C16 15.0535 15.9214 14.863 15.7814 14.7222L11.806 10.7393Z" fill="#A2A7BF"/>
</svg>
