<svg width="16" height="17" viewBox="0 0 16 17" fill="none" xmlns="http://www.w3.org/2000/svg">
<path d="M6.90912 7.04545C8.7166 7.04545 10.1818 5.5802 10.1818 3.77273C10.1818 1.96525 8.7166 0.5 6.90912 0.5C5.10164 0.5 3.63639 1.96525 3.63639 3.77273C3.63639 5.5802 5.10164 7.04545 6.90912 7.04545Z" fill="#E4E6EC"/>
<path d="M11.3008 12.1364C9.07617 12.1364 7.27279 13.9398 7.27279 16.1643C7.27279 16.3497 7.42307 16.5 7.60845 16.5H15.6644C15.8498 16.5 16.0001 16.3497 16.0001 16.1643C16.0001 13.9398 14.1967 12.1364 11.9721 12.1364H11.3008Z" fill="#E4E6EC"/>
<path d="M13.8182 9.22727C13.8182 10.4323 12.8414 11.4091 11.6364 11.4091C10.4314 11.4091 9.45459 10.4323 9.45459 9.22727C9.45459 8.02228 10.4314 7.04545 11.6364 7.04545C12.8414 7.04545 13.8182 8.02228 13.8182 9.22727Z" fill="#E4E6EC"/>
<path d="M0.503496 14.3182H6.98305C7.54629 13.0026 8.69323 11.9964 10.0982 11.6251C9.31003 11.1185 8.78792 10.2339 8.78792 9.22727C8.78792 8.75578 8.90248 8.31104 9.10527 7.91937C8.67763 7.82338 8.23284 7.77273 7.77623 7.77273H6.04196C2.70508 7.77273 0 10.4778 0 13.8147C0 14.0928 0.225423 14.3182 0.503496 14.3182Z" fill="#E4E6EC"/>
</svg>
