<svg width="252" height="158" viewBox="0 0 252 158" fill="none" xmlns="http://www.w3.org/2000/svg">
<path d="M187.5 96.5C187.5 130.466 159.966 158 126 158C92.0345 158 64.5 130.466 64.5 96.5C64.5 62.5345 92.0345 35 126 35C159.966 35 187.5 62.5345 187.5 96.5ZM73.0838 96.5C73.0838 125.725 96.7752 149.416 126 149.416C155.225 149.416 178.916 125.725 178.916 96.5C178.916 67.2752 155.225 43.5838 126 43.5838C96.7752 43.5838 73.0838 67.2752 73.0838 96.5Z" fill="#E4E6EC"/>
<path d="M7.63574 15L6.40527 11.8281H2.39941L1.17578 15H0L3.91016 4.96484H4.95605L8.83887 15H7.63574ZM6.05664 10.7959L4.8877 7.64453C4.86035 7.5625 4.81478 7.42806 4.75098 7.24121C4.69173 7.05436 4.63021 6.86068 4.56641 6.66016C4.5026 6.45964 4.4502 6.29785 4.40918 6.1748C4.36361 6.36165 4.31348 6.5485 4.25879 6.73535C4.20866 6.91764 4.15853 7.08854 4.1084 7.24805C4.05827 7.40299 4.01497 7.53516 3.97852 7.64453L2.78906 10.7959H6.05664ZM16.2422 7.50781V15H15.3125L15.1484 13.9473H15.0869C14.932 14.207 14.7314 14.4258 14.4854 14.6035C14.2393 14.7812 13.9613 14.9134 13.6514 15C13.346 15.0911 13.0202 15.1367 12.6738 15.1367C12.0814 15.1367 11.5846 15.041 11.1836 14.8496C10.7826 14.6582 10.4795 14.362 10.2744 13.9609C10.0739 13.5599 9.97363 13.0449 9.97363 12.416V7.50781H11.1221V12.334C11.1221 12.9583 11.2633 13.4255 11.5459 13.7354C11.8285 14.0407 12.2591 14.1934 12.8379 14.1934C13.3939 14.1934 13.8359 14.0885 14.1641 13.8789C14.4967 13.6693 14.736 13.3617 14.8818 12.9561C15.0277 12.5459 15.1006 12.0446 15.1006 11.4521V7.50781H16.2422ZM15.1348 4.27441V4.41113C15.0436 4.54329 14.9183 4.7028 14.7588 4.88965C14.6038 5.07194 14.4307 5.26562 14.2393 5.4707C14.0479 5.67122 13.8542 5.86263 13.6582 6.04492C13.4668 6.22721 13.2891 6.38444 13.125 6.5166H12.3662V6.35254C12.512 6.17936 12.6715 5.97201 12.8447 5.73047C13.0179 5.48438 13.1865 5.23372 13.3506 4.97852C13.5146 4.71875 13.6514 4.48405 13.7607 4.27441H15.1348ZM22.1895 7.37109C23.0781 7.37109 23.7503 7.58984 24.2061 8.02734C24.6618 8.46029 24.8896 9.15755 24.8896 10.1191V15H23.7686V10.1943C23.7686 9.56999 23.625 9.10286 23.3379 8.79297C23.0553 8.48307 22.6201 8.32812 22.0322 8.32812C21.2028 8.32812 20.6195 8.56283 20.2822 9.03223C19.945 9.50163 19.7764 10.1829 19.7764 11.0762V15H18.6416V7.50781H19.5576L19.7285 8.58789H19.79C19.9495 8.32357 20.1523 8.10254 20.3984 7.9248C20.6445 7.74251 20.9202 7.60579 21.2256 7.51465C21.5309 7.41895 21.8522 7.37109 22.1895 7.37109ZM34.4121 7.37109C35.3008 7.37109 35.973 7.58984 36.4287 8.02734C36.8844 8.46029 37.1123 9.15755 37.1123 10.1191V15H35.9912V10.1943C35.9912 9.56999 35.8477 9.10286 35.5605 8.79297C35.278 8.48307 34.8428 8.32812 34.2549 8.32812C33.4255 8.32812 32.8421 8.56283 32.5049 9.03223C32.1676 9.50163 31.999 10.1829 31.999 11.0762V15H30.8643V7.50781H31.7803L31.9512 8.58789H32.0127C32.1722 8.32357 32.375 8.10254 32.6211 7.9248C32.8672 7.74251 33.1429 7.60579 33.4482 7.51465C33.7536 7.41895 34.0749 7.37109 34.4121 7.37109ZM45.9102 11.2402C45.9102 11.8555 45.8304 12.4046 45.6709 12.8877C45.5114 13.3708 45.2812 13.7786 44.9805 14.1113C44.6797 14.444 44.3151 14.6992 43.8867 14.877C43.4629 15.0501 42.9821 15.1367 42.4443 15.1367C41.943 15.1367 41.4827 15.0501 41.0635 14.877C40.6488 14.6992 40.2887 14.444 39.9834 14.1113C39.6826 13.7786 39.4479 13.3708 39.2793 12.8877C39.1152 12.4046 39.0332 11.8555 39.0332 11.2402C39.0332 10.4199 39.1722 9.72266 39.4502 9.14844C39.7282 8.56966 40.1247 8.12988 40.6396 7.8291C41.1592 7.52376 41.7767 7.37109 42.4922 7.37109C43.1758 7.37109 43.7728 7.52376 44.2832 7.8291C44.7982 8.13444 45.1969 8.5765 45.4795 9.15527C45.7666 9.72949 45.9102 10.4245 45.9102 11.2402ZM40.209 11.2402C40.209 11.8418 40.2887 12.3636 40.4482 12.8057C40.6077 13.2477 40.8538 13.5895 41.1865 13.8311C41.5192 14.0726 41.9476 14.1934 42.4717 14.1934C42.9912 14.1934 43.4173 14.0726 43.75 13.8311C44.0872 13.5895 44.3356 13.2477 44.4951 12.8057C44.6546 12.3636 44.7344 11.8418 44.7344 11.2402C44.7344 10.6432 44.6546 10.1283 44.4951 9.69531C44.3356 9.25781 44.0895 8.92057 43.7568 8.68359C43.4242 8.44661 42.9935 8.32812 42.4648 8.32812C41.6855 8.32812 41.1136 8.58561 40.749 9.10059C40.389 9.61556 40.209 10.3288 40.209 11.2402ZM53.9287 14.207C54.1156 14.207 54.307 14.1911 54.5029 14.1592C54.6989 14.1273 54.8584 14.0885 54.9814 14.043V14.9248C54.8493 14.984 54.6647 15.0342 54.4277 15.0752C54.1953 15.1162 53.9674 15.1367 53.7441 15.1367C53.3477 15.1367 52.9876 15.0684 52.6641 14.9316C52.3405 14.7904 52.0807 14.5534 51.8848 14.2207C51.6934 13.888 51.5977 13.4277 51.5977 12.8398V8.39648H50.5312V7.84277L51.6045 7.39844L52.0557 5.77148H52.7393V7.50781H54.9336V8.39648H52.7393V12.8057C52.7393 13.2751 52.8464 13.626 53.0605 13.8584C53.2793 14.0908 53.5687 14.207 53.9287 14.207ZM57.6338 7.50781V15H56.499V7.50781H57.6338ZM57.0801 4.70508C57.2669 4.70508 57.4264 4.7666 57.5586 4.88965C57.6953 5.00814 57.7637 5.19499 57.7637 5.4502C57.7637 5.70085 57.6953 5.8877 57.5586 6.01074C57.4264 6.13379 57.2669 6.19531 57.0801 6.19531C56.8841 6.19531 56.7201 6.13379 56.5879 6.01074C56.4603 5.8877 56.3965 5.70085 56.3965 5.4502C56.3965 5.19499 56.4603 5.00814 56.5879 4.88965C56.7201 4.7666 56.8841 4.70508 57.0801 4.70508ZM62.9248 7.37109C63.5628 7.37109 64.1097 7.51237 64.5654 7.79492C65.0212 8.07747 65.3698 8.47396 65.6113 8.98438C65.8529 9.49023 65.9736 10.0827 65.9736 10.7617V11.4658H60.7988C60.8125 12.3454 61.0312 13.0153 61.4551 13.4756C61.8789 13.9359 62.4759 14.166 63.2461 14.166C63.7201 14.166 64.1393 14.1227 64.5039 14.0361C64.8685 13.9495 65.2467 13.8219 65.6387 13.6533V14.6514C65.2604 14.82 64.8844 14.943 64.5107 15.0205C64.1416 15.098 63.7041 15.1367 63.1982 15.1367C62.4782 15.1367 61.8493 14.9909 61.3115 14.6992C60.7783 14.403 60.3636 13.9701 60.0674 13.4004C59.7712 12.8307 59.623 12.1335 59.623 11.3086C59.623 10.502 59.7575 9.80469 60.0264 9.2168C60.2998 8.62435 60.6826 8.16862 61.1748 7.84961C61.6715 7.5306 62.2549 7.37109 62.9248 7.37109ZM62.9111 8.30078C62.305 8.30078 61.8219 8.49902 61.4619 8.89551C61.1019 9.29199 60.8877 9.8457 60.8193 10.5566H64.7842C64.7796 10.11 64.709 9.7181 64.5723 9.38086C64.4401 9.03906 64.2373 8.77474 63.9639 8.58789C63.6904 8.39648 63.3395 8.30078 62.9111 8.30078ZM71.4492 7.37109C72.3379 7.37109 73.0101 7.58984 73.4658 8.02734C73.9215 8.46029 74.1494 9.15755 74.1494 10.1191V15H73.0283V10.1943C73.0283 9.56999 72.8848 9.10286 72.5977 8.79297C72.3151 8.48307 71.8799 8.32812 71.292 8.32812C70.4626 8.32812 69.8792 8.56283 69.542 9.03223C69.2048 9.50163 69.0361 10.1829 69.0361 11.0762V15H67.9014V7.50781H68.8174L68.9883 8.58789H69.0498C69.2093 8.32357 69.4121 8.10254 69.6582 7.9248C69.9043 7.74251 70.18 7.60579 70.4854 7.51465C70.7907 7.41895 71.112 7.37109 71.4492 7.37109ZM79.3721 7.37109C80.0101 7.37109 80.557 7.51237 81.0127 7.79492C81.4684 8.07747 81.8171 8.47396 82.0586 8.98438C82.3001 9.49023 82.4209 10.0827 82.4209 10.7617V11.4658H77.2461C77.2598 12.3454 77.4785 13.0153 77.9023 13.4756C78.3262 13.9359 78.9232 14.166 79.6934 14.166C80.1673 14.166 80.5866 14.1227 80.9512 14.0361C81.3158 13.9495 81.694 13.8219 82.0859 13.6533V14.6514C81.7077 14.82 81.3317 14.943 80.958 15.0205C80.5889 15.098 80.1514 15.1367 79.6455 15.1367C78.9255 15.1367 78.2965 14.9909 77.7588 14.6992C77.2256 14.403 76.8109 13.9701 76.5146 13.4004C76.2184 12.8307 76.0703 12.1335 76.0703 11.3086C76.0703 10.502 76.2048 9.80469 76.4736 9.2168C76.7471 8.62435 77.1299 8.16862 77.6221 7.84961C78.1188 7.5306 78.7021 7.37109 79.3721 7.37109ZM79.3584 8.30078C78.7523 8.30078 78.2692 8.49902 77.9092 8.89551C77.5492 9.29199 77.335 9.8457 77.2666 10.5566H81.2314C81.2269 10.11 81.1562 9.7181 81.0195 9.38086C80.8874 9.03906 80.6846 8.77474 80.4111 8.58789C80.1377 8.39648 79.7868 8.30078 79.3584 8.30078ZM89.1953 12.9492C89.1953 13.4277 89.0745 13.8311 88.833 14.1592C88.596 14.4827 88.2542 14.7266 87.8076 14.8906C87.3656 15.0547 86.8369 15.1367 86.2217 15.1367C85.6976 15.1367 85.2441 15.0957 84.8613 15.0137C84.4785 14.9316 84.1436 14.8154 83.8564 14.665V13.6191C84.1618 13.7695 84.5264 13.9062 84.9502 14.0293C85.374 14.1523 85.807 14.2139 86.249 14.2139C86.8962 14.2139 87.3656 14.109 87.6572 13.8994C87.9489 13.6898 88.0947 13.4049 88.0947 13.0449C88.0947 12.8398 88.0355 12.6598 87.917 12.5049C87.8031 12.3454 87.6094 12.1927 87.3359 12.0469C87.0625 11.8965 86.6842 11.7324 86.2012 11.5547C85.7227 11.3724 85.3079 11.1924 84.957 11.0146C84.6107 10.8324 84.3418 10.6113 84.1504 10.3516C83.9635 10.0918 83.8701 9.75456 83.8701 9.33984C83.8701 8.70638 84.1253 8.22103 84.6357 7.88379C85.1507 7.54199 85.8252 7.37109 86.6592 7.37109C87.1104 7.37109 87.5319 7.41667 87.9238 7.50781C88.3203 7.5944 88.6895 7.71289 89.0312 7.86328L88.6484 8.77246C88.3385 8.6403 88.0081 8.52865 87.6572 8.4375C87.3063 8.34635 86.9486 8.30078 86.584 8.30078C86.0599 8.30078 85.6566 8.38737 85.374 8.56055C85.096 8.73372 84.957 8.9707 84.957 9.27148C84.957 9.50391 85.0208 9.69531 85.1484 9.8457C85.2806 9.99609 85.4902 10.1374 85.7773 10.2695C86.0645 10.4017 86.4427 10.5566 86.9121 10.7344C87.3815 10.9076 87.7871 11.0876 88.1289 11.2744C88.4707 11.4567 88.7327 11.68 88.915 11.9443C89.1019 12.2041 89.1953 12.5391 89.1953 12.9492ZM97.542 7.37109C98.18 7.37109 98.7269 7.51237 99.1826 7.79492C99.6383 8.07747 99.987 8.47396 100.229 8.98438C100.47 9.49023 100.591 10.0827 100.591 10.7617V11.4658H95.416C95.4297 12.3454 95.6484 13.0153 96.0723 13.4756C96.4961 13.9359 97.0931 14.166 97.8633 14.166C98.3372 14.166 98.7565 14.1227 99.1211 14.0361C99.4857 13.9495 99.8639 13.8219 100.256 13.6533V14.6514C99.8776 14.82 99.5016 14.943 99.1279 15.0205C98.7588 15.098 98.3213 15.1367 97.8154 15.1367C97.0954 15.1367 96.4665 14.9909 95.9287 14.6992C95.3955 14.403 94.9808 13.9701 94.6846 13.4004C94.3883 12.8307 94.2402 12.1335 94.2402 11.3086C94.2402 10.502 94.3747 9.80469 94.6436 9.2168C94.917 8.62435 95.2998 8.16862 95.792 7.84961C96.2887 7.5306 96.8721 7.37109 97.542 7.37109ZM97.5283 8.30078C96.9222 8.30078 96.4391 8.49902 96.0791 8.89551C95.7191 9.29199 95.5049 9.8457 95.4365 10.5566H99.4014C99.3968 10.11 99.3262 9.7181 99.1895 9.38086C99.0573 9.03906 98.8545 8.77474 98.5811 8.58789C98.3076 8.39648 97.9567 8.30078 97.5283 8.30078ZM107.365 12.9492C107.365 13.4277 107.244 13.8311 107.003 14.1592C106.766 14.4827 106.424 14.7266 105.978 14.8906C105.535 15.0547 105.007 15.1367 104.392 15.1367C103.868 15.1367 103.414 15.0957 103.031 15.0137C102.648 14.9316 102.313 14.8154 102.026 14.665V13.6191C102.332 13.7695 102.696 13.9062 103.12 14.0293C103.544 14.1523 103.977 14.2139 104.419 14.2139C105.066 14.2139 105.535 14.109 105.827 13.8994C106.119 13.6898 106.265 13.4049 106.265 13.0449C106.265 12.8398 106.205 12.6598 106.087 12.5049C105.973 12.3454 105.779 12.1927 105.506 12.0469C105.232 11.8965 104.854 11.7324 104.371 11.5547C103.893 11.3724 103.478 11.1924 103.127 11.0146C102.781 10.8324 102.512 10.6113 102.32 10.3516C102.133 10.0918 102.04 9.75456 102.04 9.33984C102.04 8.70638 102.295 8.22103 102.806 7.88379C103.321 7.54199 103.995 7.37109 104.829 7.37109C105.28 7.37109 105.702 7.41667 106.094 7.50781C106.49 7.5944 106.859 7.71289 107.201 7.86328L106.818 8.77246C106.508 8.6403 106.178 8.52865 105.827 8.4375C105.476 8.34635 105.118 8.30078 104.754 8.30078C104.23 8.30078 103.826 8.38737 103.544 8.56055C103.266 8.73372 103.127 8.9707 103.127 9.27148C103.127 9.50391 103.191 9.69531 103.318 9.8457C103.451 9.99609 103.66 10.1374 103.947 10.2695C104.234 10.4017 104.613 10.5566 105.082 10.7344C105.551 10.9076 105.957 11.0876 106.299 11.2744C106.641 11.4567 106.903 11.68 107.085 11.9443C107.272 12.2041 107.365 12.5391 107.365 12.9492ZM111.61 14.207C111.797 14.207 111.989 14.1911 112.185 14.1592C112.381 14.1273 112.54 14.0885 112.663 14.043V14.9248C112.531 14.984 112.346 15.0342 112.109 15.0752C111.877 15.1162 111.649 15.1367 111.426 15.1367C111.029 15.1367 110.669 15.0684 110.346 14.9316C110.022 14.7904 109.762 14.5534 109.566 14.2207C109.375 13.888 109.279 13.4277 109.279 12.8398V8.39648H108.213V7.84277L109.286 7.39844L109.737 5.77148H110.421V7.50781H112.615V8.39648H110.421V12.8057C110.421 13.2751 110.528 13.626 110.742 13.8584C110.961 14.0908 111.25 14.207 111.61 14.207ZM116.983 7.38477C117.877 7.38477 118.54 7.58529 118.973 7.98633C119.406 8.38737 119.622 9.02767 119.622 9.90723V15H118.795L118.576 13.8926H118.521C118.312 14.166 118.093 14.3962 117.865 14.583C117.637 14.7653 117.373 14.9043 117.072 15C116.776 15.0911 116.411 15.1367 115.979 15.1367C115.523 15.1367 115.117 15.057 114.762 14.8975C114.411 14.738 114.133 14.4964 113.928 14.1729C113.727 13.8493 113.627 13.4391 113.627 12.9424C113.627 12.195 113.923 11.6208 114.516 11.2197C115.108 10.8187 116.01 10.5999 117.223 10.5635L118.515 10.5088V10.0508C118.515 9.40365 118.376 8.9502 118.098 8.69043C117.82 8.43066 117.428 8.30078 116.922 8.30078C116.53 8.30078 116.156 8.35775 115.801 8.47168C115.445 8.58561 115.108 8.72005 114.789 8.875L114.44 8.01367C114.778 7.84049 115.165 7.69238 115.603 7.56934C116.04 7.44629 116.5 7.38477 116.983 7.38477ZM118.501 11.3086L117.359 11.3564C116.425 11.3929 115.767 11.5456 115.384 11.8145C115.001 12.0833 114.81 12.4639 114.81 12.9561C114.81 13.3844 114.939 13.7012 115.199 13.9062C115.459 14.1113 115.803 14.2139 116.231 14.2139C116.897 14.2139 117.441 14.0293 117.865 13.6602C118.289 13.291 118.501 12.7373 118.501 11.999V11.3086ZM124.626 15.1367C123.678 15.1367 122.926 14.8132 122.37 14.166C121.819 13.5189 121.543 12.5573 121.543 11.2812C121.543 9.99154 121.826 9.01855 122.391 8.3623C122.956 7.7015 123.708 7.37109 124.646 7.37109C125.043 7.37109 125.389 7.4235 125.686 7.52832C125.982 7.63314 126.237 7.77441 126.451 7.95215C126.665 8.12533 126.845 8.32357 126.991 8.54688H127.073C127.055 8.4056 127.037 8.21191 127.019 7.96582C127 7.71973 126.991 7.51921 126.991 7.36426V4.36328H128.126V15H127.21L127.039 13.9336H126.991C126.85 14.1569 126.67 14.3597 126.451 14.542C126.237 14.7243 125.979 14.8701 125.679 14.9795C125.382 15.0843 125.032 15.1367 124.626 15.1367ZM124.804 14.1934C125.606 14.1934 126.173 13.9655 126.506 13.5098C126.839 13.054 127.005 12.3773 127.005 11.4795V11.2744C127.005 10.3219 126.845 9.59049 126.526 9.08008C126.212 8.56966 125.638 8.31445 124.804 8.31445C124.106 8.31445 123.585 8.58333 123.238 9.12109C122.892 9.6543 122.719 10.3835 122.719 11.3086C122.719 12.2292 122.89 12.9401 123.231 13.4414C123.578 13.9427 124.102 14.1934 124.804 14.1934ZM131.667 15H130.532V7.50781H131.667V15ZM133.082 4.27441V4.41113C132.991 4.54329 132.866 4.7028 132.706 4.88965C132.551 5.07194 132.378 5.26562 132.187 5.4707C131.995 5.67122 131.801 5.86263 131.605 6.04492C131.414 6.22721 131.236 6.38444 131.072 6.5166H130.313V6.35254C130.459 6.17936 130.619 5.97201 130.792 5.73047C130.965 5.48438 131.134 5.23372 131.298 4.97852C131.462 4.71875 131.599 4.48405 131.708 4.27441H133.082ZM138.92 12.9492C138.92 13.4277 138.799 13.8311 138.558 14.1592C138.321 14.4827 137.979 14.7266 137.532 14.8906C137.09 15.0547 136.562 15.1367 135.946 15.1367C135.422 15.1367 134.969 15.0957 134.586 15.0137C134.203 14.9316 133.868 14.8154 133.581 14.665V13.6191C133.886 13.7695 134.251 13.9062 134.675 14.0293C135.099 14.1523 135.532 14.2139 135.974 14.2139C136.621 14.2139 137.09 14.109 137.382 13.8994C137.674 13.6898 137.819 13.4049 137.819 13.0449C137.819 12.8398 137.76 12.6598 137.642 12.5049C137.528 12.3454 137.334 12.1927 137.061 12.0469C136.787 11.8965 136.409 11.7324 135.926 11.5547C135.447 11.3724 135.033 11.1924 134.682 11.0146C134.335 10.8324 134.066 10.6113 133.875 10.3516C133.688 10.0918 133.595 9.75456 133.595 9.33984C133.595 8.70638 133.85 8.22103 134.36 7.88379C134.875 7.54199 135.55 7.37109 136.384 7.37109C136.835 7.37109 137.257 7.41667 137.648 7.50781C138.045 7.5944 138.414 7.71289 138.756 7.86328L138.373 8.77246C138.063 8.6403 137.733 8.52865 137.382 8.4375C137.031 8.34635 136.673 8.30078 136.309 8.30078C135.785 8.30078 135.381 8.38737 135.099 8.56055C134.821 8.73372 134.682 8.9707 134.682 9.27148C134.682 9.50391 134.745 9.69531 134.873 9.8457C135.005 9.99609 135.215 10.1374 135.502 10.2695C135.789 10.4017 136.167 10.5566 136.637 10.7344C137.106 10.9076 137.512 11.0876 137.854 11.2744C138.195 11.4567 138.457 11.68 138.64 11.9443C138.826 12.2041 138.92 12.5391 138.92 12.9492ZM143.165 14.207C143.352 14.207 143.543 14.1911 143.739 14.1592C143.935 14.1273 144.095 14.0885 144.218 14.043V14.9248C144.086 14.984 143.901 15.0342 143.664 15.0752C143.432 15.1162 143.204 15.1367 142.98 15.1367C142.584 15.1367 142.224 15.0684 141.9 14.9316C141.577 14.7904 141.317 14.5534 141.121 14.2207C140.93 13.888 140.834 13.4277 140.834 12.8398V8.39648H139.768V7.84277L140.841 7.39844L141.292 5.77148H141.976V7.50781H144.17V8.39648H141.976V12.8057C141.976 13.2751 142.083 13.626 142.297 13.8584C142.516 14.0908 142.805 14.207 143.165 14.207ZM146.87 7.50781V15H145.735V7.50781H146.87ZM146.316 4.70508C146.503 4.70508 146.663 4.7666 146.795 4.88965C146.932 5.00814 147 5.19499 147 5.4502C147 5.70085 146.932 5.8877 146.795 6.01074C146.663 6.13379 146.503 6.19531 146.316 6.19531C146.12 6.19531 145.956 6.13379 145.824 6.01074C145.697 5.8877 145.633 5.70085 145.633 5.4502C145.633 5.19499 145.697 5.00814 145.824 4.88965C145.956 4.7666 146.12 4.70508 146.316 4.70508ZM152.277 15.1367C151.603 15.1367 151.008 14.9977 150.493 14.7197C149.978 14.4417 149.577 14.0179 149.29 13.4482C149.003 12.8786 148.859 12.1608 148.859 11.2949C148.859 10.388 149.01 9.64746 149.311 9.07324C149.616 8.49447 150.035 8.06608 150.568 7.78809C151.102 7.51009 151.708 7.37109 152.387 7.37109C152.76 7.37109 153.12 7.40983 153.467 7.4873C153.818 7.56022 154.105 7.65365 154.328 7.76758L153.986 8.71777C153.758 8.62663 153.494 8.5446 153.193 8.47168C152.897 8.39876 152.619 8.3623 152.359 8.3623C151.84 8.3623 151.407 8.47396 151.061 8.69727C150.719 8.92057 150.461 9.2487 150.288 9.68164C150.119 10.1146 150.035 10.6478 150.035 11.2812C150.035 11.8874 150.117 12.4046 150.281 12.833C150.45 13.2614 150.698 13.5895 151.026 13.8174C151.359 14.0407 151.774 14.1523 152.271 14.1523C152.667 14.1523 153.025 14.1113 153.344 14.0293C153.663 13.9427 153.952 13.8424 154.212 13.7285V14.7402C153.961 14.8678 153.681 14.9658 153.371 15.0342C153.066 15.1025 152.701 15.1367 152.277 15.1367ZM158.792 7.38477C159.685 7.38477 160.348 7.58529 160.781 7.98633C161.214 8.38737 161.431 9.02767 161.431 9.90723V15H160.604L160.385 13.8926H160.33C160.12 14.166 159.902 14.3962 159.674 14.583C159.446 14.7653 159.182 14.9043 158.881 15C158.585 15.0911 158.22 15.1367 157.787 15.1367C157.331 15.1367 156.926 15.057 156.57 14.8975C156.219 14.738 155.941 14.4964 155.736 14.1729C155.536 13.8493 155.436 13.4391 155.436 12.9424C155.436 12.195 155.732 11.6208 156.324 11.2197C156.917 10.8187 157.819 10.5999 159.031 10.5635L160.323 10.5088V10.0508C160.323 9.40365 160.184 8.9502 159.906 8.69043C159.628 8.43066 159.236 8.30078 158.73 8.30078C158.339 8.30078 157.965 8.35775 157.609 8.47168C157.254 8.58561 156.917 8.72005 156.598 8.875L156.249 8.01367C156.586 7.84049 156.974 7.69238 157.411 7.56934C157.849 7.44629 158.309 7.38477 158.792 7.38477ZM160.31 11.3086L159.168 11.3564C158.234 11.3929 157.575 11.5456 157.192 11.8145C156.81 12.0833 156.618 12.4639 156.618 12.9561C156.618 13.3844 156.748 13.7012 157.008 13.9062C157.268 14.1113 157.612 14.2139 158.04 14.2139C158.705 14.2139 159.25 14.0293 159.674 13.6602C160.098 13.291 160.31 12.7373 160.31 11.999V11.3086ZM170.926 7.37109C171.86 7.37109 172.605 7.69238 173.161 8.33496C173.717 8.97754 173.995 9.94368 173.995 11.2334C173.995 12.0856 173.868 12.8011 173.612 13.3799C173.357 13.9587 172.997 14.3962 172.532 14.6924C172.072 14.9886 171.527 15.1367 170.898 15.1367C170.502 15.1367 170.153 15.0843 169.853 14.9795C169.552 14.8747 169.294 14.7334 169.08 14.5557C168.866 14.3779 168.688 14.1842 168.547 13.9746H168.465C168.479 14.1523 168.494 14.3665 168.513 14.6172C168.535 14.8678 168.547 15.0866 168.547 15.2734V18.3496H167.405V7.50781H168.342L168.492 8.61523H168.547C168.693 8.38737 168.87 8.18001 169.08 7.99316C169.29 7.80176 169.545 7.65137 169.846 7.54199C170.151 7.42806 170.511 7.37109 170.926 7.37109ZM170.728 8.32812C170.208 8.32812 169.789 8.42839 169.47 8.62891C169.155 8.82943 168.925 9.13021 168.779 9.53125C168.633 9.92773 168.556 10.4268 168.547 11.0283V11.2471C168.547 11.8805 168.615 12.416 168.752 12.8535C168.893 13.291 169.123 13.6237 169.442 13.8516C169.766 14.0794 170.199 14.1934 170.741 14.1934C171.206 14.1934 171.593 14.068 171.903 13.8174C172.213 13.5667 172.443 13.2181 172.594 12.7715C172.749 12.3203 172.826 11.8031 172.826 11.2197C172.826 10.3356 172.653 9.63379 172.307 9.11426C171.965 8.59017 171.438 8.32812 170.728 8.32812ZM178.78 7.38477C179.674 7.38477 180.337 7.58529 180.77 7.98633C181.202 8.38737 181.419 9.02767 181.419 9.90723V15H180.592L180.373 13.8926H180.318C180.109 14.166 179.89 14.3962 179.662 14.583C179.434 14.7653 179.17 14.9043 178.869 15C178.573 15.0911 178.208 15.1367 177.775 15.1367C177.32 15.1367 176.914 15.057 176.559 14.8975C176.208 14.738 175.93 14.4964 175.725 14.1729C175.524 13.8493 175.424 13.4391 175.424 12.9424C175.424 12.195 175.72 11.6208 176.312 11.2197C176.905 10.8187 177.807 10.5999 179.02 10.5635L180.312 10.5088V10.0508C180.312 9.40365 180.173 8.9502 179.895 8.69043C179.617 8.43066 179.225 8.30078 178.719 8.30078C178.327 8.30078 177.953 8.35775 177.598 8.47168C177.242 8.58561 176.905 8.72005 176.586 8.875L176.237 8.01367C176.575 7.84049 176.962 7.69238 177.399 7.56934C177.837 7.44629 178.297 7.38477 178.78 7.38477ZM180.298 11.3086L179.156 11.3564C178.222 11.3929 177.563 11.5456 177.181 11.8145C176.798 12.0833 176.606 12.4639 176.606 12.9561C176.606 13.3844 176.736 13.7012 176.996 13.9062C177.256 14.1113 177.6 14.2139 178.028 14.2139C178.694 14.2139 179.238 14.0293 179.662 13.6602C180.086 13.291 180.298 12.7373 180.298 11.999V11.3086ZM187.161 7.37109C187.312 7.37109 187.469 7.38021 187.633 7.39844C187.797 7.41211 187.943 7.43262 188.07 7.45996L187.927 8.5127C187.804 8.48079 187.667 8.45573 187.517 8.4375C187.366 8.41927 187.225 8.41016 187.093 8.41016C186.792 8.41016 186.507 8.47168 186.238 8.59473C185.974 8.71322 185.742 8.88639 185.541 9.11426C185.34 9.33757 185.183 9.60872 185.069 9.92773C184.955 10.2422 184.898 10.5931 184.898 10.9805V15H183.757V7.50781H184.7L184.823 8.88867H184.871C185.026 8.61068 185.213 8.35775 185.432 8.12988C185.65 7.89746 185.903 7.71289 186.19 7.57617C186.482 7.43945 186.806 7.37109 187.161 7.37109ZM192.288 7.38477C193.181 7.38477 193.844 7.58529 194.277 7.98633C194.71 8.38737 194.927 9.02767 194.927 9.90723V15H194.1L193.881 13.8926H193.826C193.617 14.166 193.398 14.3962 193.17 14.583C192.942 14.7653 192.678 14.9043 192.377 15C192.081 15.0911 191.716 15.1367 191.283 15.1367C190.827 15.1367 190.422 15.057 190.066 14.8975C189.715 14.738 189.438 14.4964 189.232 14.1729C189.032 13.8493 188.932 13.4391 188.932 12.9424C188.932 12.195 189.228 11.6208 189.82 11.2197C190.413 10.8187 191.315 10.5999 192.527 10.5635L193.819 10.5088V10.0508C193.819 9.40365 193.68 8.9502 193.402 8.69043C193.124 8.43066 192.732 8.30078 192.227 8.30078C191.835 8.30078 191.461 8.35775 191.105 8.47168C190.75 8.58561 190.413 8.72005 190.094 8.875L189.745 8.01367C190.082 7.84049 190.47 7.69238 190.907 7.56934C191.345 7.44629 191.805 7.38477 192.288 7.38477ZM193.806 11.3086L192.664 11.3564C191.73 11.3929 191.071 11.5456 190.688 11.8145C190.306 12.0833 190.114 12.4639 190.114 12.9561C190.114 13.3844 190.244 13.7012 190.504 13.9062C190.764 14.1113 191.108 14.2139 191.536 14.2139C192.201 14.2139 192.746 14.0293 193.17 13.6602C193.594 13.291 193.806 12.7373 193.806 11.999V11.3086ZM209.036 7.37109C209.861 7.37109 210.483 7.58757 210.902 8.02051C211.322 8.44889 211.531 9.13932 211.531 10.0918V15H210.41V10.1465C210.41 9.54036 210.278 9.08691 210.014 8.78613C209.754 8.48079 209.367 8.32812 208.852 8.32812C208.127 8.32812 207.601 8.53776 207.272 8.95703C206.944 9.3763 206.78 9.99382 206.78 10.8096V15H205.652V10.1465C205.652 9.74089 205.593 9.40365 205.475 9.13477C205.361 8.86589 205.188 8.66536 204.955 8.5332C204.727 8.39648 204.438 8.32812 204.087 8.32812C203.59 8.32812 203.191 8.43066 202.891 8.63574C202.59 8.84082 202.371 9.14616 202.234 9.55176C202.102 9.9528 202.036 10.4473 202.036 11.0352V15H200.901V7.50781H201.817L201.988 8.56738H202.05C202.2 8.30762 202.389 8.08887 202.617 7.91113C202.845 7.7334 203.1 7.59896 203.383 7.50781C203.665 7.41667 203.966 7.37109 204.285 7.37109C204.855 7.37109 205.331 7.47819 205.714 7.69238C206.101 7.90202 206.382 8.22331 206.555 8.65625H206.616C206.862 8.22331 207.2 7.90202 207.628 7.69238C208.056 7.47819 208.526 7.37109 209.036 7.37109ZM220.322 11.2402C220.322 11.8555 220.243 12.4046 220.083 12.8877C219.924 13.3708 219.693 13.7786 219.393 14.1113C219.092 14.444 218.727 14.6992 218.299 14.877C217.875 15.0501 217.394 15.1367 216.856 15.1367C216.355 15.1367 215.895 15.0501 215.476 14.877C215.061 14.6992 214.701 14.444 214.396 14.1113C214.095 13.7786 213.86 13.3708 213.691 12.8877C213.527 12.4046 213.445 11.8555 213.445 11.2402C213.445 10.4199 213.584 9.72266 213.862 9.14844C214.14 8.56966 214.537 8.12988 215.052 7.8291C215.571 7.52376 216.189 7.37109 216.904 7.37109C217.588 7.37109 218.185 7.52376 218.695 7.8291C219.21 8.13444 219.609 8.5765 219.892 9.15527C220.179 9.72949 220.322 10.4245 220.322 11.2402ZM214.621 11.2402C214.621 11.8418 214.701 12.3636 214.86 12.8057C215.02 13.2477 215.266 13.5895 215.599 13.8311C215.931 14.0726 216.36 14.1934 216.884 14.1934C217.403 14.1934 217.829 14.0726 218.162 13.8311C218.499 13.5895 218.748 13.2477 218.907 12.8057C219.067 12.3636 219.146 11.8418 219.146 11.2402C219.146 10.6432 219.067 10.1283 218.907 9.69531C218.748 9.25781 218.502 8.92057 218.169 8.68359C217.836 8.44661 217.406 8.32812 216.877 8.32812C216.098 8.32812 215.526 8.58561 215.161 9.10059C214.801 9.61556 214.621 10.3288 214.621 11.2402ZM227.131 12.9492C227.131 13.4277 227.01 13.8311 226.769 14.1592C226.532 14.4827 226.19 14.7266 225.743 14.8906C225.301 15.0547 224.772 15.1367 224.157 15.1367C223.633 15.1367 223.18 15.0957 222.797 15.0137C222.414 14.9316 222.079 14.8154 221.792 14.665V13.6191C222.097 13.7695 222.462 13.9062 222.886 14.0293C223.31 14.1523 223.743 14.2139 224.185 14.2139C224.832 14.2139 225.301 14.109 225.593 13.8994C225.884 13.6898 226.03 13.4049 226.03 13.0449C226.03 12.8398 225.971 12.6598 225.853 12.5049C225.739 12.3454 225.545 12.1927 225.271 12.0469C224.998 11.8965 224.62 11.7324 224.137 11.5547C223.658 11.3724 223.243 11.1924 222.893 11.0146C222.546 10.8324 222.277 10.6113 222.086 10.3516C221.899 10.0918 221.806 9.75456 221.806 9.33984C221.806 8.70638 222.061 8.22103 222.571 7.88379C223.086 7.54199 223.761 7.37109 224.595 7.37109C225.046 7.37109 225.467 7.41667 225.859 7.50781C226.256 7.5944 226.625 7.71289 226.967 7.86328L226.584 8.77246C226.274 8.6403 225.944 8.52865 225.593 8.4375C225.242 8.34635 224.884 8.30078 224.52 8.30078C223.995 8.30078 223.592 8.38737 223.31 8.56055C223.032 8.73372 222.893 8.9707 222.893 9.27148C222.893 9.50391 222.956 9.69531 223.084 9.8457C223.216 9.99609 223.426 10.1374 223.713 10.2695C224 10.4017 224.378 10.5566 224.848 10.7344C225.317 10.9076 225.723 11.0876 226.064 11.2744C226.406 11.4567 226.668 11.68 226.851 11.9443C227.037 12.2041 227.131 12.5391 227.131 12.9492ZM231.376 14.207C231.563 14.207 231.754 14.1911 231.95 14.1592C232.146 14.1273 232.306 14.0885 232.429 14.043V14.9248C232.297 14.984 232.112 15.0342 231.875 15.0752C231.643 15.1162 231.415 15.1367 231.191 15.1367C230.795 15.1367 230.435 15.0684 230.111 14.9316C229.788 14.7904 229.528 14.5534 229.332 14.2207C229.141 13.888 229.045 13.4277 229.045 12.8398V8.39648H227.979V7.84277L229.052 7.39844L229.503 5.77148H230.187V7.50781H232.381V8.39648H230.187V12.8057C230.187 13.2751 230.294 13.626 230.508 13.8584C230.727 14.0908 231.016 14.207 231.376 14.207ZM237.351 7.37109C237.501 7.37109 237.658 7.38021 237.822 7.39844C237.986 7.41211 238.132 7.43262 238.26 7.45996L238.116 8.5127C237.993 8.48079 237.856 8.45573 237.706 8.4375C237.556 8.41927 237.414 8.41016 237.282 8.41016C236.981 8.41016 236.697 8.47168 236.428 8.59473C236.163 8.71322 235.931 8.88639 235.73 9.11426C235.53 9.33757 235.373 9.60872 235.259 9.92773C235.145 10.2422 235.088 10.5931 235.088 10.9805V15H233.946V7.50781H234.89L235.013 8.88867H235.061C235.215 8.61068 235.402 8.35775 235.621 8.12988C235.84 7.89746 236.093 7.71289 236.38 7.57617C236.672 7.43945 236.995 7.37109 237.351 7.37109ZM242.478 7.38477C243.371 7.38477 244.034 7.58529 244.467 7.98633C244.9 8.38737 245.116 9.02767 245.116 9.90723V15H244.289L244.07 13.8926H244.016C243.806 14.166 243.587 14.3962 243.359 14.583C243.132 14.7653 242.867 14.9043 242.566 15C242.27 15.0911 241.906 15.1367 241.473 15.1367C241.017 15.1367 240.611 15.057 240.256 14.8975C239.905 14.738 239.627 14.4964 239.422 14.1729C239.221 13.8493 239.121 13.4391 239.121 12.9424C239.121 12.195 239.417 11.6208 240.01 11.2197C240.602 10.8187 241.505 10.5999 242.717 10.5635L244.009 10.5088V10.0508C244.009 9.40365 243.87 8.9502 243.592 8.69043C243.314 8.43066 242.922 8.30078 242.416 8.30078C242.024 8.30078 241.65 8.35775 241.295 8.47168C240.939 8.58561 240.602 8.72005 240.283 8.875L239.935 8.01367C240.272 7.84049 240.659 7.69238 241.097 7.56934C241.534 7.44629 241.994 7.38477 242.478 7.38477ZM243.995 11.3086L242.854 11.3564C241.919 11.3929 241.261 11.5456 240.878 11.8145C240.495 12.0833 240.304 12.4639 240.304 12.9561C240.304 13.3844 240.434 13.7012 240.693 13.9062C240.953 14.1113 241.297 14.2139 241.726 14.2139C242.391 14.2139 242.936 14.0293 243.359 13.6602C243.783 13.291 243.995 12.7373 243.995 11.999V11.3086ZM250.858 7.37109C251.009 7.37109 251.166 7.38021 251.33 7.39844C251.494 7.41211 251.64 7.43262 251.768 7.45996L251.624 8.5127C251.501 8.48079 251.364 8.45573 251.214 8.4375C251.063 8.41927 250.922 8.41016 250.79 8.41016C250.489 8.41016 250.204 8.47168 249.936 8.59473C249.671 8.71322 249.439 8.88639 249.238 9.11426C249.038 9.33757 248.881 9.60872 248.767 9.92773C248.653 10.2422 248.596 10.5931 248.596 10.9805V15H247.454V7.50781H248.397L248.521 8.88867H248.568C248.723 8.61068 248.91 8.35775 249.129 8.12988C249.348 7.89746 249.601 7.71289 249.888 7.57617C250.179 7.43945 250.503 7.37109 250.858 7.37109Z" fill="#A2A7BF"/>
<path d="M187.313 91.7101C188.274 104.012 185.513 116.318 179.387 127.029C173.262 137.74 164.057 146.362 152.967 151.772C141.878 157.183 129.417 159.132 117.205 157.368C104.993 155.603 93.5939 150.206 84.4896 141.878C75.3853 133.549 68.9967 122.675 66.1542 110.668C63.3116 98.6607 64.1466 86.0762 68.5505 74.5499C72.9545 63.0236 80.7237 53.0885 90.8485 46.0359C100.973 38.9833 112.985 35.1394 125.324 35.0037L125.418 43.587C114.802 43.7037 104.466 47.0112 95.7547 53.0794C87.0431 59.1476 80.3582 67.696 76.569 77.6136C72.7797 87.5311 72.0613 98.3591 74.5071 108.69C76.9529 119.022 82.4498 128.378 90.2834 135.544C98.117 142.71 107.925 147.354 118.433 148.872C128.94 150.391 139.662 148.713 149.203 144.058C158.745 139.402 166.666 131.984 171.936 122.768C177.206 113.552 179.582 102.963 178.755 92.3787L187.313 91.7101Z" fill="#F2F2F3"/>
</svg>
