<svg width="25" height="32" viewBox="0 0 25 32" fill="none" xmlns="http://www.w3.org/2000/svg">
<path d="M12.7374 20.0392C12.6981 19.9215 12.6982 19.8431 12.6589 19.7255C12.6982 19.8431 12.6981 19.9215 12.7374 20.0392Z" fill="#9F2180"/>
<path d="M12.4628 27.9609C12.502 27.8824 12.5413 27.804 12.5805 27.7256C12.5805 27.804 12.5413 27.8824 12.4628 27.9609Z" fill="#9F2180"/>
<path d="M11.757 28.9021C11.7177 28.9413 11.6785 28.9805 11.6785 29.0197C11.7177 28.9805 11.757 28.9413 11.757 28.9021Z" fill="#9F2180"/>
<path d="M13.0511 21.451C13.0511 21.5687 13.0903 21.6863 13.1295 21.7648C13.0903 21.6863 13.0511 21.5687 13.0511 21.451Z" fill="#9F2180"/>
<path d="M13.9531 4.39231C14.1099 4.19623 14.306 4.00016 14.4629 3.80408C14.306 4.00016 14.1099 4.19623 13.9531 4.39231Z" fill="#9F2180"/>
<path d="M15.208 16C14.7766 16.1176 14.3452 16.1961 13.8746 16.3137C14.3452 16.1961 14.7766 16.0784 15.208 16Z" fill="#9F2180"/>
<path d="M2.3844 23.098C2.50205 22.9019 2.65891 22.745 2.81577 22.549C2.65891 22.745 2.50205 22.9411 2.3844 23.098Z" fill="#9F2180"/>
<path d="M2.18833 25.6863C2.03146 26.0784 1.95303 26.4706 1.91382 26.8628L8.77657 30.1569C9.12951 29.9216 9.48245 29.6863 9.8354 29.3726L2.18833 25.6863Z" fill="#9F2180"/>
<path d="M14.581 19.3726C14.4241 19.4118 13.679 19.4902 12.6986 19.6863C12.6986 19.7255 12.6986 19.7255 12.6986 19.7647C12.7378 19.8824 12.7378 19.9608 12.777 20.0784H12.7378C12.8163 20.5098 12.9339 21.0196 13.0123 21.5294C13.0123 21.6471 13.0515 21.7647 13.0908 21.8432C13.3261 22.902 13.4829 24.0392 13.2868 25.2157C13.2868 26.1569 13.0123 27.0196 12.6202 27.7255C12.581 27.8039 12.5417 27.8824 12.5025 27.9608C12.3064 28.3137 12.0712 28.6275 11.7966 28.902C11.7574 28.9412 11.7182 28.9804 11.7182 29.0196C11.0908 29.7255 10.3849 30.2353 9.75742 30.6275H9.79664C9.32605 31.0196 9.24762 31.6471 9.56134 32L9.679 31.9608C11.9927 30.9804 13.9535 29.4118 14.7378 26.7451C15.2084 25.1765 15.2084 23.451 15.0123 21.8039C14.8947 20.9804 14.7378 20.1569 14.581 19.3726Z" fill="#9F2180"/>
<path d="M10.306 20.157L11.8354 20.9021C11.757 20.3138 11.7177 19.9609 11.6785 19.8824C11.2079 19.9609 10.7766 20.0393 10.306 20.157Z" fill="#9F2180"/>
<path d="M5.56088 21.9608C5.16872 22.1961 4.81577 22.4706 4.46283 22.7451L11.7962 26.2745C11.9138 25.9216 12.0315 25.5294 12.1099 25.1373L5.56088 21.9608Z" fill="#9F2180"/>
<path d="M24.424 7.88234V7.7647C23.9926 7.64705 23.522 7.92156 23.3651 8.43136C23.4044 9.60784 23.0514 13.1373 18.62 14.9412C18.0318 15.2941 16.8553 15.6471 15.2475 16.0392C14.8161 16.1569 14.3847 16.2745 13.9141 16.3529C13.3259 16.5098 12.6592 16.6275 11.9926 16.7843C11.9534 16.7843 11.8749 16.8235 11.8357 16.8235C10.1102 17.2157 8.30629 17.6471 6.65923 18.2745C5.0906 18.8628 3.6004 19.6079 2.38472 20.7451C0.267065 22.7451 -0.203521 25.2941 0.0709889 27.8824L0.345498 31.1373C0.737655 29.0588 0.855303 28.353 1.12981 26.8628C1.12981 26.1177 1.28667 24.6275 2.38472 23.1373C2.50236 22.9412 2.65923 22.7843 2.81609 22.6275C3.05139 22.353 3.3259 22.0784 3.63962 21.8431C3.63962 21.8431 5.87492 19.7255 14.3455 18.2745C15.4828 18 16.6593 17.6471 17.7573 17.2549C19.3259 16.6667 20.8553 15.9216 22.0318 14.7843C24.071 12.8235 24.5808 10.3529 24.424 7.88234Z" fill="#9F2180"/>
<path d="M11.7182 15.7647C12.1888 15.6863 12.8555 15.6079 13.6398 15.451C11.9143 10.0392 12.6986 6.94119 12.6986 6.94119C12.8947 5.96079 13.4045 5.13726 13.9535 4.43138C14.1104 4.2353 14.3065 4.03922 14.5025 3.84314C15.5614 2.7451 16.6986 2.15687 16.6986 2.15687C17.5222 1.4902 18.1888 1.05883 19.5614 0L16.5025 1.17647C14.0712 2.11765 12.0319 3.68628 11.2084 6.4706C10.7378 8.03923 10.7378 9.7255 10.9339 11.3726C11.0908 12.8235 11.4045 14.3137 11.7182 15.7647Z" fill="#9F2180"/>
<path d="M20.3452 12.3531L13.7962 7.3335C13.7178 7.76487 13.6393 8.19624 13.6393 8.66683L19.404 13.0982C19.7178 12.8629 20.0315 12.6276 20.3452 12.3531Z" fill="#9F2180"/>
<path d="M15.6785 14.8627L14.3452 13.8431C14.5021 14.4314 14.6589 14.8627 14.7766 15.1373C15.0903 15.0588 15.3648 14.9804 15.6785 14.8627Z" fill="#9F2180"/>
<path d="M22.5805 8.00005L16.3059 3.17651C15.9922 3.37259 15.7177 3.6471 15.404 3.96083L22.306 9.25495C22.4628 8.8628 22.5413 8.43142 22.5805 8.00005Z" fill="#9F2180"/>
<path d="M12.6985 19.7256C12.6985 19.6864 12.6985 19.6864 12.6985 19.6472C12.6592 19.6864 12.6985 19.7256 12.6985 19.7256Z" fill="#9F2180"/>
</svg>
