<svg width="103" height="40" viewBox="0 0 103 40" fill="none" xmlns="http://www.w3.org/2000/svg">
<path fill-rule="evenodd" clip-rule="evenodd" d="M28.8455 36.8917H28.4725V39.9823H30.5152V39.6626H28.8455V36.8917Z" fill="#9F2180"/>
<path fill-rule="evenodd" clip-rule="evenodd" d="M32.9308 36.8917L31.4921 39.9823H31.8828L32.2381 39.2008H33.9255L34.2807 39.9823H34.6715L33.2327 36.8917H32.9308ZM32.3802 38.8811L33.0906 37.3003H33.1084L33.8189 38.8811H32.3802Z" fill="#9F2180"/>
<path fill-rule="evenodd" clip-rule="evenodd" d="M37.9397 38.4014C38.0995 38.3481 38.2238 38.2593 38.3304 38.135C38.4192 38.0107 38.4725 37.8686 38.4725 37.7087C38.4725 37.46 38.3837 37.2647 38.2061 37.1226C38.0285 36.9805 37.762 36.9094 37.4246 36.9094H36.1279V40H37.4778C37.8153 40 38.0818 39.929 38.2771 39.7869C38.4725 39.6448 38.5613 39.4316 38.5613 39.1474C38.5613 38.9521 38.508 38.7922 38.4015 38.6679C38.2594 38.5258 38.1173 38.437 37.9397 38.4014ZM36.4654 37.1759H37.3357C37.8331 37.1759 38.064 37.3535 38.064 37.7265C38.064 38.0817 37.8153 38.2771 37.3357 38.2771H36.4654V37.1759ZM37.4246 39.6981H36.4654V38.5613H37.4246C37.9219 38.5613 38.1706 38.7567 38.1706 39.1297C38.1528 39.5027 37.9041 39.6981 37.4246 39.6981Z" fill="#9F2180"/>
<path fill-rule="evenodd" clip-rule="evenodd" d="M42.3091 37.0338C42.0782 36.9094 41.8118 36.8384 41.5098 36.8384C41.2079 36.8384 40.9414 36.9094 40.7105 37.0338C40.4796 37.1581 40.3198 37.3535 40.1954 37.5844C40.0711 37.8153 40.0178 38.0995 40.0178 38.4192C40.0178 38.7389 40.0711 39.0231 40.1954 39.254C40.3198 39.4849 40.4974 39.6803 40.7105 39.8046C40.9414 39.929 41.1901 40 41.4921 40C41.794 40 42.0605 39.929 42.2914 39.8046C42.5223 39.6803 42.6821 39.4849 42.8065 39.254C42.9308 39.0231 42.9841 38.7389 42.9841 38.4014C42.9841 38.0817 42.9308 37.7975 42.8065 37.5666C42.6999 37.3535 42.5223 37.1759 42.3091 37.0338ZM42.3091 39.3606C42.1137 39.5915 41.8473 39.6981 41.5098 39.6981C41.1724 39.6981 40.9059 39.5915 40.7105 39.3606C40.5152 39.1297 40.4263 38.8277 40.4263 38.437C40.4263 38.0284 40.5152 37.7265 40.7105 37.5133C40.9059 37.3002 41.1724 37.1759 41.5098 37.1759C41.8651 37.1759 42.1315 37.2824 42.3091 37.5133C42.5045 37.7265 42.5933 38.0462 42.5933 38.437C42.6111 38.8277 42.5045 39.1474 42.3091 39.3606Z" fill="#9F2180"/>
<path fill-rule="evenodd" clip-rule="evenodd" d="M46.2344 38.6324C46.4831 38.5969 46.6607 38.4903 46.7851 38.3482C46.9094 38.2061 46.9804 38.0107 46.9804 37.7798C46.9804 37.4956 46.8916 37.2647 46.6963 37.1226C46.5186 36.9628 46.2344 36.8917 45.897 36.8917H44.6003V39.9823H44.9733V38.6679H45.5595C45.7016 38.6679 45.8259 38.6857 45.9325 38.739C46.0213 38.7745 46.1101 38.8633 46.1812 38.9876L46.7495 39.9823H47.1581L46.5897 38.9699C46.4831 38.7923 46.3588 38.6679 46.2344 38.6324ZM45.8437 38.3837H44.9911V37.1759H45.8437C46.3588 37.1759 46.6074 37.3713 46.6074 37.7798C46.6074 38.1883 46.341 38.3837 45.8437 38.3837Z" fill="#9F2180"/>
<path fill-rule="evenodd" clip-rule="evenodd" d="M49.6803 36.8917L48.2416 39.9823H48.6323L48.9876 39.2008H50.675L51.0302 39.9823H51.421L49.9823 36.8917H49.6803ZM49.1297 38.8811L49.8402 37.3003H49.8579L50.5684 38.8811H49.1297Z" fill="#9F2180"/>
<path fill-rule="evenodd" clip-rule="evenodd" d="M52.1136 37.1937H53.3037V39.9823H53.6767V37.1937H54.8668V36.8917H52.1136V37.1937Z" fill="#9F2180"/>
<path fill-rule="evenodd" clip-rule="evenodd" d="M58.1706 37.0338C57.9397 36.9094 57.6732 36.8384 57.3713 36.8384C57.0693 36.8384 56.8029 36.9094 56.572 37.0338C56.3411 37.1581 56.1812 37.3535 56.0569 37.5844C55.9326 37.8153 55.8793 38.0995 55.8793 38.4192C55.8793 38.7389 55.9326 39.0231 56.0569 39.254C56.1812 39.4849 56.3588 39.6803 56.572 39.8046C56.8029 39.929 57.0516 40 57.3535 40C57.6555 40 57.9219 39.929 58.1528 39.8046C58.3837 39.6803 58.5436 39.4849 58.6679 39.254C58.7922 39.0231 58.8455 38.7389 58.8455 38.4014C58.8455 38.0817 58.7922 37.7975 58.6679 37.5666C58.5613 37.3535 58.3837 37.1759 58.1706 37.0338ZM58.1706 39.3606C57.9752 39.5915 57.7088 39.6981 57.3713 39.6981C57.0338 39.6981 56.7674 39.5915 56.572 39.3606C56.3766 39.1297 56.2878 38.8277 56.2878 38.437C56.2878 38.0284 56.3766 37.7265 56.572 37.5133C56.7674 37.3002 57.0338 37.1759 57.3713 37.1759C57.7265 37.1759 57.9929 37.2824 58.1706 37.5133C58.366 37.7265 58.4548 38.0462 58.4548 38.437C58.4548 38.8277 58.366 39.1474 58.1706 39.3606Z" fill="#9F2180"/>
<path fill-rule="evenodd" clip-rule="evenodd" d="M62.0782 38.6324C62.3269 38.5969 62.5045 38.4903 62.6288 38.3482C62.7532 38.2061 62.8242 38.0107 62.8242 37.7798C62.8242 37.4956 62.7354 37.2647 62.54 37.1226C62.3624 36.9628 62.0782 36.8917 61.7407 36.8917H60.4441V39.9823H60.8171V38.6679H61.4032C61.5453 38.6679 61.6697 38.6857 61.7762 38.739C61.8651 38.7745 61.9539 38.8633 62.0249 38.9876L62.5933 39.9823H63.0018L62.4334 38.9699C62.3446 38.7923 62.2203 38.6679 62.0782 38.6324ZM61.7052 38.3837H60.8526V37.1759H61.7052C62.2203 37.1759 62.469 37.3713 62.469 37.7798C62.469 38.1883 62.2025 38.3837 61.7052 38.3837Z" fill="#9F2180"/>
<path d="M64.8491 36.8917H64.4761V39.9823H64.8491V36.8917Z" fill="#9F2180"/>
<path fill-rule="evenodd" clip-rule="evenodd" d="M68.7389 37.0338C68.508 36.9094 68.2416 36.8384 67.9396 36.8384C67.6377 36.8384 67.3713 36.9094 67.1403 37.0338C66.9094 37.1581 66.7496 37.3535 66.6253 37.5844C66.5009 37.8153 66.4476 38.0995 66.4476 38.4192C66.4476 38.7389 66.5009 39.0231 66.6253 39.254C66.7496 39.4849 66.9272 39.6803 67.1403 39.8046C67.3713 39.929 67.6199 40 67.9219 40C68.2238 40 68.4903 39.929 68.7212 39.8046C68.9521 39.6803 69.1119 39.4849 69.2363 39.254C69.3606 39.0231 69.4139 38.7389 69.4139 38.4014C69.4139 38.0817 69.3606 37.7975 69.2363 37.5666C69.1297 37.3535 68.9698 37.1759 68.7389 37.0338ZM68.7567 39.3606C68.5613 39.5915 68.2949 39.6981 67.9574 39.6981C67.6199 39.6981 67.3535 39.5915 67.1581 39.3606C66.9627 39.1297 66.8739 38.8277 66.8739 38.437C66.8739 38.0284 66.9627 37.7265 67.1581 37.5133C67.3535 37.3002 67.6199 37.1759 67.9574 37.1759C68.3126 37.1759 68.5791 37.2824 68.7567 37.5133C68.9521 37.7265 69.0409 38.0462 69.0409 38.437C69.0409 38.8277 68.9521 39.1474 68.7567 39.3606Z" fill="#9F2180"/>
<path fill-rule="evenodd" clip-rule="evenodd" d="M72.3801 38.366L71.9005 38.2772C71.6874 38.2416 71.5453 38.1706 71.4564 38.0995C71.3676 38.0107 71.3144 37.9042 71.3144 37.7621C71.3144 37.5844 71.3854 37.4423 71.5275 37.3358C71.6696 37.2292 71.865 37.1759 72.1136 37.1759C72.309 37.1759 72.4689 37.2114 72.6287 37.2647C72.7886 37.318 72.9307 37.4068 73.0728 37.5312L73.2149 37.247C73.0906 37.1226 72.9307 37.0338 72.7353 36.9628C72.5399 36.8917 72.3445 36.8562 72.1314 36.8562C71.9005 36.8562 71.6874 36.8917 71.5097 36.9628C71.3321 37.0338 71.19 37.1404 71.0834 37.2825C70.9769 37.4246 70.9413 37.5844 70.9413 37.7621C70.9413 37.993 71.0124 38.1706 71.1545 38.2949C71.2966 38.4193 71.5097 38.5258 71.8117 38.5791L72.2913 38.6679C72.5222 38.7034 72.682 38.7745 72.7708 38.8455C72.8596 38.9166 72.9129 39.0232 72.9129 39.1475C72.9129 39.3074 72.8419 39.4317 72.7175 39.5383C72.5755 39.6448 72.3801 39.6804 72.0959 39.6804C71.865 39.6804 71.6696 39.6448 71.492 39.5915C71.3144 39.5383 71.1545 39.4495 70.9946 39.3429L70.8525 39.6271C70.9946 39.7514 71.19 39.8402 71.3854 39.8935C71.5985 39.9645 71.8294 39.9823 72.0781 39.9823C72.3268 39.9823 72.5399 39.9468 72.7175 39.8757C72.8952 39.8047 73.0373 39.6981 73.1261 39.5738C73.2149 39.4495 73.2682 39.2896 73.2682 39.112C73.2682 38.8988 73.1971 38.7212 73.0373 38.5969C72.9307 38.5081 72.6998 38.4193 72.3801 38.366Z" fill="#9F2180"/>
<path d="M48.4547 18.9165H46.5719V32.0781H48.4547V18.9165Z" fill="#9F2180"/>
<path fill-rule="evenodd" clip-rule="evenodd" d="M60.7638 30.3197C60.1422 30.6217 59.4494 30.7638 58.6857 30.7638C57.9041 30.7638 57.2114 30.6217 56.5898 30.3552C55.9681 30.0888 55.4352 29.7158 54.9912 29.2362C54.5471 28.7567 54.2096 28.206 53.9787 27.5488C53.7478 26.9094 53.6235 26.2167 53.6235 25.4707C53.6235 24.7602 53.7478 24.0675 53.9787 23.4281C54.2274 22.7886 54.5649 22.238 55.0089 21.7407C55.453 21.2611 55.9858 20.8703 56.6253 20.6039C57.2469 20.3197 57.9574 20.1776 58.7567 20.1776C59.4494 20.1776 60.1066 20.3197 60.7105 20.6217C61.3144 20.9059 61.7763 21.2789 62.1137 21.7229L63.6057 20.6039C63.3571 20.2664 63.0551 19.9822 62.6999 19.7158C62.3446 19.4671 61.9539 19.254 61.5276 19.0764C61.1013 18.8988 60.6395 18.7744 60.1777 18.6856C59.7159 18.5968 59.2363 18.5613 58.7922 18.5613C57.762 18.5613 56.8029 18.7211 55.9326 19.0586C55.0622 19.3961 54.2985 19.8579 53.659 20.4618C53.0196 21.0657 52.5223 21.794 52.1493 22.6288C51.794 23.4814 51.5986 24.4227 51.5986 25.4529C51.5986 26.4654 51.7763 27.4068 52.1315 28.2416C52.4867 29.0941 52.9841 29.8224 53.6057 30.4263C54.2274 31.048 54.9912 31.5098 55.8615 31.865C56.7319 32.2025 57.6732 32.3801 58.7034 32.3801C59.8935 32.3801 60.9237 32.167 61.7763 31.7229C62.6288 31.2789 63.3216 30.7105 63.8544 30L62.3446 29.0053C61.9006 29.5915 61.3855 30.0355 60.7638 30.3197Z" fill="#9F2180"/>
<path fill-rule="evenodd" clip-rule="evenodd" d="M68.5969 29.7868V18.9165H66.7141V30.4085C66.7141 31.3321 67.4779 32.0781 68.4193 32.0781H74.6182V30.444H69.2718C68.8988 30.444 68.5969 30.1421 68.5969 29.7868Z" fill="#9F2180"/>
<path fill-rule="evenodd" clip-rule="evenodd" d="M83.357 18.9165C82.8419 18.9165 82.3624 19.2185 82.167 19.6803L76.6608 32.0781H78.7567L80.1066 28.8455H86.5009L87.8686 32.0781H90L84.5471 19.6803C84.3517 19.2185 83.8721 18.9165 83.357 18.9165ZM80.7638 27.2291L83.3038 21.0657L85.826 27.2291H80.7638Z" fill="#9F2180"/>
<path fill-rule="evenodd" clip-rule="evenodd" d="M21.7052 20.5328H27.6199V18.9165H20.8171C19.8047 18.9165 18.9698 19.7158 18.9698 20.7105V24.2096C18.9698 25.222 19.8224 26.0568 20.8526 26.0568H27.2114V24.476H20.8526V21.3677C20.8526 20.9058 21.2434 20.5328 21.7052 20.5328Z" fill="#9F2180"/>
<path fill-rule="evenodd" clip-rule="evenodd" d="M20.8526 29.6093V26.3411H18.9698V30.373C18.9698 31.3144 19.7514 32.0604 20.7105 32.0604H27.9041V30.4263H21.7052C21.2434 30.4441 20.8526 30.0711 20.8526 29.6093Z" fill="#9F2180"/>
<path fill-rule="evenodd" clip-rule="evenodd" d="M100.622 24.9023C101.226 24.3162 101.528 23.5346 101.528 22.5577C101.528 21.8828 101.403 21.3144 101.155 20.8526C100.906 20.3908 100.551 20.0177 100.124 19.7336C99.6804 19.4494 99.183 19.2362 98.5969 19.1119C98.0107 18.9876 97.3891 18.9165 96.7496 18.9165H92.4335V32.0781H94.3162V26.2167H96.3411L98.2772 26.0391C99.2185 25.8792 100 25.4884 100.622 24.9023ZM96.4654 24.6714H94.2985V20.4796H96.6075C97.0161 20.4796 97.4068 20.5151 97.7621 20.5861C98.1351 20.6572 98.4548 20.7638 98.7212 20.9236C98.9876 21.0835 99.2185 21.2966 99.3784 21.563C99.5383 21.8295 99.6271 22.1669 99.6271 22.5577C99.6271 22.9485 99.5383 23.286 99.3784 23.5524C99.2185 23.8188 98.9876 24.032 98.7035 24.2096C98.4193 24.3694 98.0818 24.4938 97.7088 24.5648C97.318 24.6359 96.9095 24.6714 96.4654 24.6714Z" fill="#9F2180"/>
<path fill-rule="evenodd" clip-rule="evenodd" d="M99.3073 26.9094H97.2114L100.195 32.0782H102.469L99.3073 26.9094Z" fill="#9F2180"/>
<path fill-rule="evenodd" clip-rule="evenodd" d="M1.74068 18.9165H0V32.0781H1.82949V21.0835H1.86501L6.32327 32.0781H8.20604C8.20604 32.0781 4.40497 22.611 3.35702 20C3.10835 19.3428 2.46892 18.9165 1.74068 18.9165Z" fill="#9F2180"/>
<path fill-rule="evenodd" clip-rule="evenodd" d="M10.4795 20.231L7.14026 28.7922H8.8987L12.007 21.0658H12.0426V32.0604H13.9253V18.8988H12.4333C11.563 18.9166 10.7815 19.4317 10.4795 20.231Z" fill="#9F2180"/>
<path fill-rule="evenodd" clip-rule="evenodd" d="M40.9592 20.4618C40.2664 19.9289 39.4849 19.5382 38.6146 19.2895C37.7442 19.0408 36.8917 18.9165 36.0213 18.9165H31.5453C31.4565 18.9165 31.4032 18.9876 31.4032 19.0586V20.5151H33.286H35.6483C36.4654 20.5151 37.2114 20.6217 37.9041 20.8348C38.5968 21.0479 39.2007 21.3677 39.698 21.7762C40.1954 22.1847 40.5862 22.6998 40.8703 23.3215C41.1545 23.9431 41.2966 24.6536 41.2966 25.4707C41.2966 26.2522 41.1545 26.9449 40.8703 27.5666C40.5862 28.1883 40.1954 28.7034 39.698 29.1297C39.2007 29.5559 38.5968 29.8757 37.9041 30.0888C37.2114 30.3197 36.4654 30.4263 35.6483 30.4263H33.286V21.2256H31.4032V29.9112C31.4032 31.0835 32.3801 32.0426 33.5879 32.0426H36.0391C36.9094 32.0426 37.762 31.9183 38.6323 31.6519C39.5027 31.3854 40.2842 30.9769 40.9769 30.444C41.6696 29.9112 42.238 29.2185 42.6643 28.4014C43.0906 27.5844 43.3037 26.6074 43.3037 25.4707C43.3037 24.2984 43.0906 23.3037 42.6643 22.4867C42.2203 21.6696 41.6519 20.9947 40.9592 20.4618Z" fill="#9F2180"/>
<path fill-rule="evenodd" clip-rule="evenodd" d="M47.4245 6.67853C47.5489 6.62525 47.6732 6.58972 47.7975 6.5542C28.8277 6.74958 11.8473 8.96983 0 12.4157C12.1492 9.66255 28.064 7.88635 45.6483 7.58439C46.199 7.21139 46.8029 6.90944 47.4245 6.67853Z" fill="#9F2180"/>
<path fill-rule="evenodd" clip-rule="evenodd" d="M101.528 12.4157C90.231 9.14745 74.3162 6.96272 56.4299 6.58972C56.2523 6.83839 56.0392 7.08706 55.8082 7.31796C55.7017 7.40677 55.5951 7.49558 55.4885 7.58439C73.215 7.85082 89.2896 9.64479 101.528 12.4157Z" fill="#9F2180"/>
<path d="M50.3375 9.0763C50.3198 9.02301 50.3198 8.98749 50.302 8.9342C50.3198 8.98749 50.3198 9.02301 50.3375 9.0763Z" fill="#9F2180"/>
<path d="M50.2131 12.6643C50.2309 12.6288 50.2487 12.5933 50.2664 12.5577C50.2664 12.5933 50.2487 12.6288 50.2131 12.6643Z" fill="#9F2180"/>
<path d="M49.8934 13.0906C49.8757 13.1083 49.8579 13.1261 49.8579 13.1439C49.8757 13.1261 49.8934 13.1083 49.8934 13.0906Z" fill="#9F2180"/>
<path d="M50.4796 9.71582C50.4796 9.76911 50.4974 9.82239 50.5151 9.85792C50.4974 9.82239 50.4796 9.76911 50.4796 9.71582Z" fill="#9F2180"/>
<path d="M50.8882 1.98933C50.9592 1.90052 51.048 1.81171 51.1191 1.7229C51.048 1.81171 50.9592 1.90052 50.8882 1.98933Z" fill="#9F2180"/>
<path d="M51.4565 7.24683C51.2611 7.30011 51.0657 7.33564 50.8525 7.38892C51.0657 7.33564 51.2611 7.28235 51.4565 7.24683Z" fill="#9F2180"/>
<path d="M45.6483 10.4618C45.7016 10.373 45.7726 10.3019 45.8437 10.2131C45.7726 10.3019 45.7016 10.3908 45.6483 10.4618Z" fill="#9F2180"/>
<path d="M45.5595 11.6342C45.4885 11.8118 45.4529 11.9894 45.4352 12.167L48.5435 13.659C48.7034 13.5525 48.8632 13.4459 49.0231 13.3038L45.5595 11.6342Z" fill="#9F2180"/>
<path d="M51.1723 8.77441C51.1012 8.79218 50.7637 8.8277 50.3197 8.91651C50.3197 8.93427 50.3197 8.93427 50.3197 8.95203C50.3375 9.00532 50.3375 9.04084 50.3552 9.09413H50.3375C50.373 9.28951 50.4263 9.52042 50.4618 9.75132C50.4618 9.80461 50.4796 9.8579 50.4973 9.89342C50.6039 10.373 50.6749 10.8881 50.5861 11.421C50.5861 11.8472 50.4618 12.238 50.2842 12.5577C50.2664 12.5932 50.2486 12.6288 50.2309 12.6643C50.1421 12.8241 50.0355 12.9662 49.9112 13.0906C49.8934 13.1083 49.8756 13.1261 49.8756 13.1439C49.5915 13.4636 49.2717 13.6945 48.9875 13.8721H49.0053C48.7922 14.0497 48.7566 14.3339 48.8987 14.4938L48.952 14.476C50 14.032 50.8881 13.3215 51.2433 12.1137C51.4565 11.4032 51.4565 10.6217 51.3677 9.87566C51.3144 9.50266 51.2433 9.12965 51.1723 8.77441Z" fill="#9F2180"/>
<path d="M49.2362 9.12971L49.9289 9.46718C49.8934 9.20075 49.8756 9.0409 49.8579 9.00537C49.6447 9.0409 49.4494 9.07642 49.2362 9.12971Z" fill="#9F2180"/>
<path d="M47.0871 9.94678C46.9094 10.0533 46.7496 10.1777 46.5897 10.302L49.9112 11.9006C49.9645 11.7407 50.0178 11.5631 50.0533 11.3855L47.0871 9.94678Z" fill="#9F2180"/>
<path d="M55.6306 3.57017V3.51688C55.4352 3.46359 55.2221 3.58793 55.151 3.81883C55.1688 4.35169 55.0089 5.95027 53.0018 6.76733C52.7354 6.92718 52.2025 7.08704 51.4743 7.26466C51.2789 7.31795 51.0835 7.37123 50.8704 7.40676C50.6039 7.4778 50.302 7.53109 50 7.60214C49.9823 7.60214 49.9468 7.6199 49.929 7.6199C49.1475 7.79752 48.3304 7.9929 47.5844 8.27709C46.8739 8.54352 46.199 8.881 45.6483 9.3961C44.6892 10.302 44.4761 11.4565 44.6004 12.6288L44.7247 14.103C44.9023 13.1616 44.9556 12.8419 45.08 12.167C45.08 11.8295 45.151 11.1545 45.6483 10.4796C45.7016 10.3908 45.7727 10.3197 45.8437 10.2487C45.9503 10.1243 46.0746 10 46.2167 9.89344C46.2167 9.89344 47.2292 8.93429 51.0658 8.27709C51.5809 8.15276 52.1137 7.9929 52.6111 7.81528C53.3215 7.54885 54.0142 7.21137 54.5471 6.69628C55.4707 5.80818 55.7016 4.68917 55.6306 3.57017Z" fill="#9F2180"/>
<path d="M49.8757 7.14032C50.0889 7.1048 50.3908 7.06928 50.7461 6.99823C49.9645 4.54707 50.3198 3.14387 50.3198 3.14387C50.4086 2.69982 50.6395 2.32682 50.8882 2.00711C50.9592 1.9183 51.048 1.82949 51.1368 1.74068C51.6164 1.24334 52.1315 0.97691 52.1315 0.97691C52.5045 0.674956 52.8065 0.479574 53.4281 0L52.0427 0.53286C50.9414 0.959148 50.0178 1.66963 49.6448 2.93073C49.4317 3.64121 49.4317 4.40498 49.5205 5.15098C49.5915 5.80817 49.7336 6.48313 49.8757 7.14032Z" fill="#9F2180"/>
<path d="M53.7833 5.59507L50.817 3.32153C50.7815 3.51692 50.746 3.7123 50.746 3.92544L53.357 5.93255C53.4991 5.82597 53.6412 5.7194 53.7833 5.59507Z" fill="#9F2180"/>
<path d="M51.6697 6.73171L51.0658 6.2699C51.1368 6.53633 51.2079 6.73171 51.2612 6.85604C51.4033 6.82052 51.5276 6.785 51.6697 6.73171Z" fill="#9F2180"/>
<path d="M54.7957 3.62345L51.9538 1.43872C51.8117 1.52753 51.6874 1.65186 51.5453 1.79396L54.6714 4.19183C54.7424 4.01421 54.778 3.81883 54.7957 3.62345Z" fill="#9F2180"/>
<path d="M50.3197 8.93433C50.3197 8.91657 50.3197 8.91657 50.3197 8.8988C50.3019 8.91657 50.3197 8.93433 50.3197 8.93433Z" fill="#9F2180"/>
</svg>
